<svg xmlns="http://www.w3.org/2000/svg" xmlns:v="https://svgstorm.com"
viewBox = "0 0 100 100"
width="100"
height="100">
<g fill="None" fill-opacity="0.0" stroke="#000000" stroke-opacity="0.00" stroke-width="0.3"><path d="
M 0.00 40.00 
C 0.50 40.00 1.00 40.00 1.00 40.00
C 2.07 32.16 5.25 25.38 10.00 19.00
C 12.45 15.70 15.69 12.35 19.00 10.00
C 20.40 9.00 21.63 8.72 23.00 8.00
C 24.37 7.11 25.34 5.85 27.00 5.00
C 31.24 2.83 35.25 1.55 40.00 1.00
C 40.06 0.99 40.00 0.00 40.00 0.00
L 0.00 0.00
L 0.00 40.00 Z"/>
</g>
<g fill="None" fill-opacity="0.0" stroke="#FF948D" stroke-opacity="0.26" stroke-width="0.3"><path d="
M 40.00 1.00 
C 41.29 0.85 43.49 1.67 44.00 0.00
L 40.00 0.00
C 40.00 0.00 40.06 0.99 40.00 1.00 Z"/>
</g>
<g fill="None" fill-opacity="0.0" stroke="#E73A32" stroke-opacity="0.87" stroke-width="0.3"><path d="
M 40.00 1.00 
C 35.25 1.55 31.24 2.83 27.00 5.00
C 25.65 5.86 24.63 7.15 23.00 8.00
C 21.63 8.72 20.40 9.00 19.00 10.00
C 16.19 12.36 12.37 16.28 10.00 19.00
C 5.25 25.38 2.07 32.16 1.00 40.00
C 0.86 41.00 1.49 42.74 0.00 43.00
L 0.00 55.00
C 1.49 55.54 0.88 57.74 1.00 59.00
C 1.50 64.19 2.62 68.37 5.00 73.00
C 5.86 74.35 7.15 75.37 8.00 77.00
C 8.67 78.27 9.08 79.71 10.00 81.00
C 12.36 83.81 16.28 87.63 19.00 90.00
C 25.25 94.65 32.20 98.26 40.00 99.00
C 41.91 99.18 44.91 98.15 46.00 100.00
L 54.00 100.00
C 54.84 98.39 57.43 99.14 59.00 99.00
C 67.29 98.28 74.34 94.95 81.00 90.00
C 83.77 87.58 87.68 83.76 90.00 81.00
C 91.01 79.58 91.30 78.43 92.00 77.00
C 93.08 74.79 94.99 72.85 96.00 71.00
C 97.71 67.03 98.58 63.42 99.00 59.00
C 99.12 57.71 98.35 55.51 100.00 55.00
L 100.00 46.00
C 98.39 45.16 99.14 42.57 99.00 41.00
C 98.69 37.46 98.20 35.25 97.00 32.00
C 95.57 29.17 93.60 25.97 92.00 23.00
C 91.10 21.33 90.28 19.62 89.00 18.00
C 86.74 15.55 83.48 12.08 81.00 10.00
C 79.60 9.00 78.37 8.72 77.00 8.00
C 75.39 7.16 74.29 5.82 73.00 5.00
C 69.96 3.44 67.37 2.55 64.00 2.00
C 62.31 1.72 62.19 2.11 61.00 1.00
C 60.51 1.06 60.00 1.00 60.00 1.00
C 57.48 1.00 53.70 1.78 52.00 0.00
L 44.00 0.00
C 43.49 1.67 41.29 0.85 40.00 1.00
M 56.00 6.00 
C 54.33 6.51 52.69 7.55 51.00 8.00
C 48.19 8.74 49.39 8.40 47.00 7.00
C 46.15 6.67 44.72 6.38 44.00 6.00
C 43.19 5.57 42.11 5.05 42.00 4.00
C 43.67 4.00 45.33 4.00 47.00 4.00
C 48.98 3.88 51.01 4.00 53.00 4.00
C 53.39 4.00 55.76 3.74 56.00 4.00
C 58.39 3.79 57.64 5.62 56.00 6.00
M 43.00 10.00 
C 44.35 10.64 44.88 11.22 46.00 12.00
C 49.60 13.79 50.39 13.80 54.00 12.00
C 55.41 11.12 56.18 9.72 58.00 9.00
C 58.92 8.64 60.01 8.39 61.00 8.00
C 63.26 6.68 62.29 5.76 65.00 7.00
C 65.50 7.00 66.84 6.77 67.00 7.00
C 68.99 6.57 69.35 9.14 68.00 9.00
C 67.73 9.67 64.71 10.72 64.00 11.00
C 63.04 11.38 62.01 11.53 61.00 12.00
C 59.64 12.87 58.65 14.16 57.00 15.00
C 55.48 15.78 52.65 17.53 51.00 18.00
C 48.22 18.80 48.40 17.56 46.00 16.00
C 44.95 15.52 44.02 15.40 43.00 15.00
C 41.19 14.28 40.35 12.86 39.00 12.00
C 37.94 11.51 37.04 11.40 36.00 11.00
C 34.21 10.30 30.84 8.94 33.00 7.00
C 35.59 4.68 40.57 8.84 43.00 10.00
M 74.00 11.00 
C 74.49 10.93 75.00 11.00 75.00 11.00
C 77.71 11.94 76.23 12.87 75.00 14.00
C 71.83 18.22 59.89 22.10 55.00 25.00
C 53.65 25.99 52.97 27.61 51.00 28.00
C 50.52 28.09 49.48 28.09 49.00 28.00
C 47.03 27.61 46.30 25.95 45.00 25.00
C 40.06 22.08 34.98 19.54 30.00 17.00
C 28.20 16.08 27.17 15.61 26.00 14.00
C 25.53 13.87 25.00 14.00 25.00 14.00
C 23.04 13.31 22.90 11.61 25.00 11.00
C 28.42 8.85 34.04 15.42 37.25 16.75 C 40.45 18.09 46.52 21.39 49.00 24.00
C 55.88 21.04 62.29 16.57 69.00 13.00
C 70.93 11.67 71.60 9.25 74.00 11.00
M 20.00 16.00 
C 20.36 16.23 21.00 16.00 21.00 16.00
C 22.96 16.53 23.65 18.01 25.00 19.00
C 31.29 22.73 40.84 30.78 48.00 32.00
C 49.09 32.18 50.91 32.19 52.00 32.00
C 53.36 31.49 54.73 30.70 56.00 30.00
C 57.43 29.03 58.15 27.73 60.00 27.00
C 60.96 26.62 61.99 26.47 63.00 26.00
C 64.42 25.10 65.17 23.72 67.00 23.00
C 67.96 22.62 68.99 22.47 70.00 22.00
C 71.17 21.24 71.62 20.67 73.00 20.00
C 74.37 19.34 75.67 18.70 77.00 18.00
C 78.42 16.98 77.98 16.44 80.00 16.00
C 80.79 15.83 82.74 15.89 83.00 18.00
C 83.04 18.30 82.34 18.84 82.00 19.00
C 80.71 20.52 79.80 21.08 78.00 22.00
C 75.41 23.32 72.62 24.45 70.00 26.00
C 68.59 27.03 67.73 28.12 66.00 29.00
C 56.11 34.05 51.47 38.35 41.00 33.00
C 39.28 32.12 38.36 30.99 37.00 30.00
C 32.06 27.07 27.08 24.40 22.00 22.00
C 19.95 21.03 18.05 19.96 16.00 19.00
C 16.82 17.96 18.91 14.19 20.00 16.00
M 21.00 26.00 
C 22.42 26.68 22.82 27.11 24.00 28.00
C 29.40 30.94 34.46 34.34 40.00 37.00
C 41.42 37.68 41.82 38.11 43.00 39.00
C 51.96 43.88 55.43 40.07 64.00 35.00
C 65.43 33.95 66.13 32.74 68.00 32.00
C 68.96 31.62 69.99 31.47 71.00 31.00
C 72.36 30.13 73.35 28.84 75.00 28.00
C 77.57 26.69 80.34 25.39 83.00 24.00
C 83.83 23.56 87.79 19.87 88.00 24.00
C 88.10 26.04 86.43 26.09 85.00 27.00
C 83.58 28.12 82.76 29.10 81.00 30.00
C 76.04 32.53 70.91 35.09 66.00 38.00
C 64.57 39.05 63.87 40.26 62.00 41.00
C 61.04 41.38 60.01 41.53 59.00 42.00
C 57.58 42.90 56.83 44.28 55.00 45.00
C 54.12 45.35 52.96 45.67 52.00 46.00
C 49.04 47.75 50.90 47.71 48.00 46.00
C 47.05 45.67 45.91 45.36 45.00 45.00
C 43.13 44.26 42.38 43.01 41.00 42.00
C 36.06 39.08 30.98 36.54 26.00 34.00
C 24.37 33.17 23.29 31.83 22.00 31.00
C 20.95 30.51 20.03 30.41 19.00 30.00
C 17.19 29.28 16.35 27.86 15.00 27.00
C 14.35 26.70 12.39 26.31 12.00 26.00
C 10.54 24.82 12.11 22.19 14.00 22.00
C 15.22 21.88 19.67 25.36 21.00 26.00
M 11.00 30.00 
C 12.94 30.42 12.66 31.04 14.00 32.00
C 15.35 32.71 16.64 33.34 18.00 34.00
C 19.41 34.68 19.83 35.12 21.00 36.00
C 27.38 39.47 37.89 43.28 43.00 48.00
C 44.16 49.08 46.26 51.45 43.00 52.00
C 42.37 52.26 39.64 51.25 39.00 51.00
C 37.19 50.29 36.35 48.86 35.00 48.00
C 33.95 47.51 33.03 47.41 32.00 47.00
C 30.19 46.28 29.35 44.86 28.00 44.00
C 26.95 43.51 26.03 43.41 25.00 43.00
C 23.19 42.28 22.35 40.86 21.00 40.00
C 19.95 39.51 19.03 39.41 18.00 39.00
C 16.13 38.26 15.38 37.01 14.00 36.00
C 12.07 34.86 10.14 33.46 8.00 33.00
C 8.21 31.37 8.90 28.17 11.00 30.00
M 86.00 36.00 
C 84.59 37.03 83.73 38.12 82.00 39.00
C 74.69 42.73 67.48 47.37 60.00 51.00
C 57.54 52.19 52.92 51.43 57.00 48.00
C 59.25 46.11 64.22 44.65 67.00 43.00
C 68.42 41.96 69.22 40.84 71.00 40.00
C 76.11 37.59 81.05 34.93 86.00 32.00
C 86.97 31.29 88.33 28.72 90.00 29.00
C 91.21 29.21 91.95 31.96 92.00 33.00
C 89.63 33.03 88.28 35.50 86.00 36.00
M 10.00 39.00 
C 11.47 39.65 11.81 40.15 13.00 41.00
C 14.35 41.71 15.64 42.34 17.00 43.00
C 18.41 43.68 18.83 44.12 20.00 45.00
C 25.65 48.08 30.94 51.97 37.00 54.00
C 36.59 54.83 36.03 55.87 35.00 56.00
C 32.81 58.30 34.11 57.18 32.00 56.00
C 31.07 55.70 29.89 55.35 29.00 55.00
C 27.19 54.28 26.35 52.86 25.00 52.00
C 23.95 51.51 23.03 51.41 22.00 51.00
C 20.13 50.26 19.38 49.01 18.00 48.00
C 15.35 46.43 12.62 45.34 10.00 44.00
C 8.32 43.14 6.90 42.74 6.00 41.00
C 5.45 39.94 5.99 38.79 6.00 37.00
C 7.34 37.73 8.64 38.34 10.00 39.00
M 82.00 48.00 
C 80.57 49.05 79.87 50.26 78.00 51.00
C 77.04 51.38 76.01 51.53 75.00 52.00
C 73.58 52.90 72.83 54.28 71.00 55.00
C 70.13 55.34 68.95 55.69 68.00 56.00
C 66.48 56.85 66.42 58.85 65.00 56.00
C 62.71 53.99 66.44 52.88 68.00 52.00
C 69.29 51.00 69.46 50.74 71.00 50.00
C 78.98 46.18 86.18 41.07 94.00 37.00
C 96.24 43.55 85.93 44.29 82.00 48.00
M 27.00 58.00 
C 28.23 59.07 29.69 60.21 27.00 61.00
C 25.73 61.77 22.21 60.46 21.00 60.00
C 19.17 59.30 18.35 57.86 17.00 57.00
C 15.95 56.51 15.03 56.41 14.00 56.00
C 12.13 55.26 11.38 54.01 10.00 53.00
C 7.20 51.34 2.90 50.18 4.00 46.00
C 12.08 48.89 18.91 55.11 27.00 58.00
M 83.00 57.00 
C 81.57 58.05 80.89 59.28 79.00 60.00
C 77.45 60.59 74.78 61.52 73.00 61.00
C 70.26 60.20 71.80 59.04 73.00 58.00
C 77.64 52.31 90.49 50.99 96.00 46.00
C 96.32 52.66 87.16 53.30 83.00 57.00
M 83.00 71.00 
C 84.80 71.92 85.83 72.39 87.00 74.00
C 87.47 74.13 88.00 74.00 88.00 74.00
C 89.90 75.85 86.90 78.44 85.00 77.00
C 84.50 76.97 84.00 77.00 84.00 77.00
C 82.04 76.47 81.35 74.99 80.00 74.00
C 75.06 71.08 69.98 68.54 65.00 66.00
C 63.37 65.17 62.29 63.83 61.00 63.00
C 59.95 62.51 59.03 62.41 58.00 62.00
C 56.20 61.28 55.34 59.84 54.00 59.00
C 50.40 57.20 49.60 57.20 46.00 59.00
C 44.59 59.88 43.82 61.28 42.00 62.00
C 41.04 62.38 40.01 62.53 39.00 63.00
C 37.64 63.87 36.65 65.16 35.00 66.00
C 30.04 68.53 24.91 71.09 20.00 74.00
C 18.60 75.02 17.96 76.47 16.00 77.00
C 15.53 77.13 15.00 77.00 15.00 77.00
C 13.16 78.39 10.03 75.91 12.00 74.00
C 12.03 73.88 13.00 74.00 13.00 74.00
C 14.34 71.86 16.77 71.05 19.00 70.00
C 21.67 68.74 24.36 67.56 27.00 66.00
C 28.42 64.96 29.22 63.84 31.00 63.00
C 34.36 61.41 37.71 59.95 41.00 58.00
C 42.42 56.96 43.22 55.84 45.00 55.00
C 54.69 50.42 73.81 66.31 83.00 71.00
M 6.00 56.00 
C 8.59 55.61 19.39 64.21 19.00 65.00
C 17.89 67.28 17.46 66.47 16.00 66.00
C 15.53 65.98 13.47 65.19 13.00 65.00
C 11.11 64.25 10.38 63.08 9.00 62.00
C 7.11 60.80 5.04 60.74 5.00 58.00
C 4.30 56.04 5.80 54.12 6.00 56.00
M 95.00 59.00 
C 94.45 61.31 86.26 65.45 84.00 66.00
C 82.55 66.35 82.10 67.26 81.00 65.00
C 79.75 63.83 90.79 57.92 93.00 57.00
C 93.84 56.65 94.27 54.02 96.00 55.00
C 95.72 56.28 96.76 58.50 95.00 59.00
M 82.00 80.00 
C 86.23 83.88 79.78 83.82 77.00 82.00
C 75.95 81.52 75.02 81.41 74.00 81.00
C 72.13 80.26 71.38 79.01 70.00 78.00
C 67.35 76.43 64.62 75.34 62.00 74.00
C 60.37 73.17 59.29 71.83 58.00 71.00
C 56.95 70.51 56.03 70.41 55.00 70.00
C 53.20 69.29 52.34 67.84 51.00 67.00
C 50.52 66.91 49.48 66.91 49.00 67.00
C 47.65 67.85 46.64 69.16 45.00 70.00
C 42.41 71.32 39.62 72.45 37.00 74.00
C 35.57 75.05 34.87 76.26 33.00 77.00
C 32.04 77.38 31.01 77.53 30.00 78.00
C 28.58 78.90 27.83 80.28 26.00 81.00
C 25.04 81.38 24.01 81.53 23.00 82.00
C 21.68 82.86 22.15 84.06 20.00 84.00
C 19.50 83.99 19.00 84.00 19.00 84.00
C 16.02 82.93 16.27 81.59 18.00 80.00
C 23.27 75.16 33.58 71.80 40.00 68.00
C 41.43 66.95 42.13 65.74 44.00 65.00
C 44.96 64.62 45.99 64.47 47.00 64.00
C 48.35 63.12 47.85 62.02 50.00 62.00
C 52.83 61.65 57.00 66.85 60.08 67.92 C 63.16 68.99 67.92 72.15 70.75 74.25 C 73.58 76.36 79.53 77.73 82.00 80.00
M 11.00 68.00 
C 13.85 70.04 8.24 72.42 8.00 69.00
C 6.53 66.75 10.78 67.59 11.00 68.00
M 92.00 69.00 
C 91.76 72.41 86.11 70.06 89.00 68.00
C 89.31 67.44 93.42 66.83 92.00 69.00
M 75.00 86.00 
C 76.26 87.16 77.65 88.07 75.00 89.00
C 74.66 89.24 74.00 89.00 74.00 89.00
C 72.11 90.83 72.41 88.83 71.00 88.00
C 69.97 87.56 69.00 87.40 68.00 87.00
C 66.19 86.28 65.35 84.86 64.00 84.00
C 62.95 83.51 62.03 83.41 61.00 83.00
C 59.19 82.28 58.35 80.86 57.00 80.00
C 55.94 79.51 55.04 79.40 54.00 79.00
C 52.29 78.34 50.94 76.97 49.00 77.00
C 46.91 77.47 44.89 78.88 43.00 80.00
C 41.57 81.05 40.87 82.26 39.00 83.00
C 38.04 83.38 37.01 83.53 36.00 84.00
C 34.58 84.90 33.83 86.28 32.00 87.00
C 31.02 87.39 29.99 87.42 29.00 88.00
C 26.41 89.52 20.95 87.80 25.00 86.00
C 25.20 85.75 26.00 86.00 26.00 86.00
C 27.04 84.27 27.40 84.77 29.00 84.00
C 32.13 82.50 35.03 80.76 38.00 79.00
C 39.41 77.97 40.27 76.88 42.00 76.00
C 48.10 72.89 52.84 71.77 58.23 76.77 C 63.62 81.77 69.97 81.37 75.00 86.00
M 53.00 83.00 
C 54.73 83.61 54.70 84.02 56.00 85.00
C 58.94 86.60 63.52 88.13 66.00 90.00
C 67.13 90.85 69.00 91.83 67.00 93.00
C 66.87 93.22 66.00 93.00 66.00 93.00
C 64.18 94.46 62.21 94.29 61.00 92.00
C 60.63 91.78 60.00 92.00 60.00 92.00
C 58.04 91.47 57.35 89.99 56.00 89.00
C 48.13 84.34 46.40 88.86 39.00 92.00
C 36.74 93.30 37.72 94.25 35.00 93.00
C 34.50 93.00 33.39 93.21 33.00 93.00
C 30.09 91.44 34.29 90.46 35.00 90.00
C 39.23 86.61 48.01 81.25 53.00 83.00
M 56.00 94.00 
C 57.74 94.40 58.38 96.21 56.00 96.00
C 55.76 96.26 53.39 96.00 53.00 96.00
C 51.01 96.00 48.98 96.12 47.00 96.00
C 45.34 95.90 43.66 96.08 42.00 96.00
C 42.41 95.17 42.97 94.13 44.00 94.00
C 45.14 92.97 48.80 93.54 49.00 91.00
C 51.68 91.05 53.14 94.25 56.00 94.00 Z"/>
</g>
<g fill="None" fill-opacity="0.0" stroke="#FF6E66" stroke-opacity="0.53" stroke-width="0.3"><path d="
M 60.00 1.00 
C 59.75 0.75 60.00 0.00 60.00 0.00
L 52.00 0.00
C 53.70 1.78 57.48 1.00 60.00 1.00 Z"/>
</g>
<g fill="None" fill-opacity="0.0" stroke="#000000" stroke-opacity="0.00" stroke-width="0.3"><path d="
M 60.00 1.00 
C 60.00 1.00 60.51 1.06 61.00 1.00
C 62.75 0.79 62.93 1.66 64.00 2.00
C 67.37 2.55 69.96 3.44 73.00 5.00
C 74.64 5.84 75.69 7.15 77.00 8.00
C 78.37 8.72 79.60 9.00 81.00 10.00
C 84.06 12.18 86.73 15.12 89.00 18.00
C 90.28 19.62 91.10 21.33 92.00 23.00
C 94.02 26.01 95.67 28.40 97.00 32.00
C 98.20 35.25 98.69 37.46 99.00 41.00
C 99.00 41.01 100.00 41.00 100.00 41.00
L 100.00 0.00
L 60.00 0.00
C 60.00 0.00 59.75 0.75 60.00 1.00 Z"/>
</g>
<g fill="None" fill-opacity="0.0" stroke="#F7A0A0" stroke-opacity="0.33" stroke-width="0.3"><path d="
M 64.00 2.00 
C 62.93 1.66 62.75 0.79 61.00 1.00
C 62.19 2.11 62.31 1.72 64.00 2.00 Z"/>
</g>
<g fill="None" fill-opacity="0.0" stroke="#FFA3A4" stroke-opacity="0.28" stroke-width="0.3"><path d="
M 44.00 6.00 
C 44.54 5.60 46.44 4.13 47.00 4.00
C 45.33 4.00 43.67 4.00 42.00 4.00
C 42.11 5.05 43.19 5.57 44.00 6.00 Z"/>
</g>
<g fill="None" fill-opacity="0.0" stroke="#000000" stroke-opacity="0.00" stroke-width="0.3"><path d="
M 44.00 6.00 
C 44.72 6.38 46.15 6.67 47.00 7.00
C 48.47 7.58 49.27 8.12 51.00 8.00
C 52.69 7.55 54.33 6.51 56.00 6.00
C 56.14 5.96 56.00 5.00 56.00 5.00
C 55.31 4.78 53.38 4.08 53.00 4.00
C 51.01 4.00 48.98 3.88 47.00 4.00
C 46.44 4.13 44.54 5.60 44.00 6.00 Z"/>
</g>
<g fill="None" fill-opacity="0.0" stroke="#FFD6CC" stroke-opacity="0.08" stroke-width="0.3"><path d="
M 56.00 5.00 
C 56.00 4.50 56.00 4.00 56.00 4.00
C 55.76 3.74 53.39 4.00 53.00 4.00
C 53.38 4.08 55.31 4.78 56.00 5.00 Z"/>
</g>
<g fill="None" fill-opacity="0.0" stroke="#FF7673" stroke-opacity="0.48" stroke-width="0.3"><path d="
M 56.00 5.00 
C 56.00 5.00 56.14 5.96 56.00 6.00
C 57.64 5.62 58.39 3.79 56.00 4.00
C 56.00 4.00 56.00 4.50 56.00 5.00 Z"/>
</g>
<g fill="None" fill-opacity="0.0" stroke="#FEA3A0" stroke-opacity="0.31" stroke-width="0.3"><path d="
M 23.00 8.00 
C 24.63 7.15 25.65 5.86 27.00 5.00
C 25.34 5.85 24.37 7.11 23.00 8.00 Z"/>
</g>
<g fill="None" fill-opacity="0.0" stroke="#FDACAC" stroke-opacity="0.29" stroke-width="0.3"><path d="
M 77.00 8.00 
C 75.69 7.15 74.64 5.84 73.00 5.00
C 74.29 5.82 75.39 7.16 77.00 8.00 Z"/>
</g>
<g fill="None" fill-opacity="0.0" stroke="#000000" stroke-opacity="0.00" stroke-width="0.3"><path d="
M 33.00 7.00 
C 33.02 8.11 34.98 10.43 36.00 11.00
C 37.04 11.40 37.94 11.51 39.00 12.00
C 40.61 12.75 41.76 14.31 43.00 15.00
C 44.02 15.40 44.95 15.52 46.00 16.00
C 47.57 16.71 49.18 18.12 51.00 18.00
C 52.65 17.53 55.48 15.78 57.00 15.00
C 58.39 14.12 59.28 12.80 61.00 12.00
C 62.01 11.53 63.04 11.38 64.00 11.00
C 64.80 10.55 66.41 8.70 67.00 8.00
C 66.81 7.59 67.00 7.00 67.00 7.00
C 66.84 6.77 65.50 7.00 65.00 7.00
C 63.26 7.01 62.53 7.40 61.00 8.00
C 60.01 8.39 58.92 8.64 58.00 9.00
C 56.71 9.71 55.57 11.21 54.00 12.00
C 50.39 13.80 49.60 13.79 46.00 12.00
C 44.81 11.41 43.93 10.60 43.00 10.00
C 40.57 8.84 35.59 4.68 33.00 7.00 Z"/>
</g>
<g fill="None" fill-opacity="0.0" stroke="#FBC2AF" stroke-opacity="0.18" stroke-width="0.3"><path d="
M 61.00 8.00 
C 62.53 7.40 63.26 7.01 65.00 7.00
C 62.29 5.76 63.26 6.68 61.00 8.00 Z"/>
</g>
<g fill="None" fill-opacity="0.0" stroke="#FD9597" stroke-opacity="0.28" stroke-width="0.3"><path d="
M 36.00 11.00 
C 34.98 10.43 33.02 8.11 33.00 7.00
C 30.84 8.94 34.21 10.30 36.00 11.00 Z"/>
</g>
<g fill="None" fill-opacity="0.0" stroke="#FEB1A4" stroke-opacity="0.20" stroke-width="0.3"><path d="
M 51.00 8.00 
C 49.27 8.12 48.47 7.58 47.00 7.00
C 49.39 8.40 48.19 8.74 51.00 8.00 Z"/>
</g>
<g fill="None" fill-opacity="0.0" stroke="#FF5C59" stroke-opacity="0.62" stroke-width="0.3"><path d="
M 67.00 8.00 
C 67.12 8.26 67.80 8.98 68.00 9.00
C 69.35 9.14 68.99 6.57 67.00 7.00
C 67.00 7.00 66.81 7.59 67.00 8.00 Z"/>
</g>
<g fill="None" fill-opacity="0.0" stroke="#FCADAC" stroke-opacity="0.27" stroke-width="0.3"><path d="
M 64.00 11.00 
C 64.71 10.72 67.73 9.67 68.00 9.00
C 67.80 8.98 67.12 8.26 67.00 8.00
C 66.41 8.70 64.80 10.55 64.00 11.00 Z"/>
</g>
<g fill="None" fill-opacity="0.0" stroke="#FEAAA4" stroke-opacity="0.27" stroke-width="0.3"><path d="
M 54.00 12.00 
C 55.57 11.21 56.71 9.71 58.00 9.00
C 56.18 9.72 55.41 11.12 54.00 12.00 Z"/>
</g>
<g fill="None" fill-opacity="0.0" stroke="#FFC0C0" stroke-opacity="0.13" stroke-width="0.3"><path d="
M 10.00 19.00 
C 12.37 16.28 16.19 12.36 19.00 10.00
C 15.69 12.35 12.45 15.70 10.00 19.00 Z"/>
</g>
<g fill="None" fill-opacity="0.0" stroke="#FFC1BF" stroke-opacity="0.21" stroke-width="0.3"><path d="
M 46.00 12.00 
C 44.88 11.22 44.35 10.64 43.00 10.00
C 43.93 10.60 44.81 11.41 46.00 12.00 Z"/>
</g>
<g fill="None" fill-opacity="0.0" stroke="#FFBBB3" stroke-opacity="0.21" stroke-width="0.3"><path d="
M 69.00 13.00 
C 70.68 12.12 72.10 11.25 74.00 11.00
C 71.60 9.25 70.93 11.67 69.00 13.00 Z"/>
</g>
<g fill="None" fill-opacity="0.0" stroke="#FFCBCB" stroke-opacity="0.12" stroke-width="0.3"><path d="
M 89.00 18.00 
C 86.73 15.12 84.06 12.18 81.00 10.00
C 83.48 12.08 86.74 15.55 89.00 18.00 Z"/>
</g>
<g fill="None" fill-opacity="0.0" stroke="#FF999C" stroke-opacity="0.30" stroke-width="0.3"><path d="
M 25.00 14.00 
C 24.19 13.43 24.14 11.54 25.00 11.00
C 22.90 11.61 23.04 13.31 25.00 14.00 Z"/>
</g>
<g fill="None" fill-opacity="0.0" stroke="#000000" stroke-opacity="0.00" stroke-width="0.3"><path d="
M 25.00 14.00 
C 25.00 14.00 25.53 13.87 26.00 14.00
C 27.93 14.52 28.65 16.14 30.00 17.00
C 34.98 19.54 40.06 22.08 45.00 25.00
C 46.46 25.87 47.78 27.24 49.00 28.00
C 49.48 28.09 50.52 28.09 51.00 28.00
C 52.29 27.20 53.52 25.88 55.00 25.00
C 59.89 22.10 71.83 18.22 75.00 14.00
C 75.59 13.22 76.04 11.73 75.00 11.00
C 75.00 11.00 74.49 10.93 74.00 11.00
C 72.10 11.25 70.68 12.12 69.00 13.00
C 62.29 16.57 55.88 21.04 49.00 24.00
C 46.52 21.39 40.45 18.09 37.25 16.75 C 34.04 15.42 28.42 8.85 25.00 11.00
C 24.14 11.54 24.19 13.43 25.00 14.00 Z"/>
</g>
<g fill="None" fill-opacity="0.0" stroke="#FF8F98" stroke-opacity="0.29" stroke-width="0.3"><path d="
M 75.00 14.00 
C 76.23 12.87 77.71 11.94 75.00 11.00
C 76.04 11.73 75.59 13.22 75.00 14.00 Z"/>
</g>
<g fill="None" fill-opacity="0.0" stroke="#FEB1B0" stroke-opacity="0.27" stroke-width="0.3"><path d="
M 43.00 15.00 
C 41.76 14.31 40.61 12.75 39.00 12.00
C 40.35 12.86 41.19 14.28 43.00 15.00 Z"/>
</g>
<g fill="None" fill-opacity="0.0" stroke="#FBB2B2" stroke-opacity="0.27" stroke-width="0.3"><path d="
M 57.00 15.00 
C 58.65 14.16 59.64 12.87 61.00 12.00
C 59.28 12.80 58.39 14.12 57.00 15.00 Z"/>
</g>
<g fill="None" fill-opacity="0.0" stroke="#FEB8B2" stroke-opacity="0.25" stroke-width="0.3"><path d="
M 30.00 17.00 
C 28.65 16.14 27.93 14.52 26.00 14.00
C 27.17 15.61 28.20 16.08 30.00 17.00 Z"/>
</g>
<g fill="None" fill-opacity="0.0" stroke="#FC8F8A" stroke-opacity="0.40" stroke-width="0.3"><path d="
M 22.00 22.00 
C 20.53 21.13 19.43 18.41 17.00 19.00
C 17.67 17.80 18.64 16.42 20.00 16.00
C 18.91 14.19 16.82 17.96 16.00 19.00
C 18.05 19.96 19.95 21.03 22.00 22.00 Z"/>
</g>
<g fill="None" fill-opacity="0.0" stroke="#FF8E8E" stroke-opacity="0.37" stroke-width="0.3"><path d="
M 80.00 16.00 
C 80.27 16.00 83.00 17.99 83.00 18.00
C 82.74 15.89 80.79 15.83 80.00 16.00 Z"/>
</g>
<g fill="None" fill-opacity="0.0" stroke="#000000" stroke-opacity="0.00" stroke-width="0.3"><path d="
M 22.00 22.00 
C 27.08 24.40 32.06 27.07 37.00 30.00
C 38.48 30.87 39.77 32.22 41.00 33.00
C 51.47 38.35 56.11 34.05 66.00 29.00
C 67.29 28.18 68.51 26.89 70.00 26.00
C 72.62 24.45 75.41 23.32 78.00 22.00
C 79.38 21.12 80.29 19.81 82.00 19.00
C 82.34 18.84 83.04 18.30 83.00 18.00
C 83.00 17.99 80.27 16.00 80.00 16.00
C 79.85 16.00 77.48 17.75 77.00 18.00
C 75.67 18.70 74.37 19.34 73.00 20.00
C 72.08 20.59 71.16 21.46 70.00 22.00
C 68.99 22.47 67.96 22.62 67.00 23.00
C 65.68 23.73 64.64 25.24 63.00 26.00
C 61.99 26.47 60.96 26.62 60.00 27.00
C 58.76 27.69 57.48 29.19 56.00 30.00
C 54.73 30.70 53.36 31.49 52.00 32.00
C 49.91 32.78 50.03 32.70 48.00 32.00
C 40.84 30.78 31.29 22.73 25.00 19.00
C 23.24 17.96 22.20 17.65 21.00 16.00
C 21.00 16.00 20.36 16.23 20.00 16.00
C 18.64 16.42 17.67 17.80 17.00 19.00
C 19.43 18.41 20.53 21.13 22.00 22.00 Z"/>
</g>
<g fill="None" fill-opacity="0.0" stroke="#F99997" stroke-opacity="0.33" stroke-width="0.3"><path d="
M 25.00 19.00 
C 23.65 18.01 22.96 16.53 21.00 16.00
C 22.20 17.65 23.24 17.96 25.00 19.00 Z"/>
</g>
<g fill="None" fill-opacity="0.0" stroke="#FEACAD" stroke-opacity="0.30" stroke-width="0.3"><path d="
M 51.00 18.00 
C 49.18 18.12 47.57 16.71 46.00 16.00
C 48.40 17.56 48.22 18.80 51.00 18.00 Z"/>
</g>
<g fill="None" fill-opacity="0.0" stroke="#FFC5CA" stroke-opacity="0.18" stroke-width="0.3"><path d="
M 77.00 18.00 
C 77.48 17.75 79.85 16.00 80.00 16.00
C 77.98 16.44 78.42 16.98 77.00 18.00 Z"/>
</g>
<g fill="None" fill-opacity="0.0" stroke="#FEB0AE" stroke-opacity="0.29" stroke-width="0.3"><path d="
M 78.00 22.00 
C 79.80 21.08 80.71 20.52 82.00 19.00
C 80.29 19.81 79.38 21.12 78.00 22.00 Z"/>
</g>
<g fill="None" fill-opacity="0.0" stroke="#FFC1C4" stroke-opacity="0.20" stroke-width="0.3"><path d="
M 70.00 22.00 
C 71.16 21.46 72.08 20.59 73.00 20.00
C 71.62 20.67 71.17 21.24 70.00 22.00 Z"/>
</g>
<g fill="None" fill-opacity="0.0" stroke="#FF9898" stroke-opacity="0.31" stroke-width="0.3"><path d="
M 12.00 26.00 
C 11.45 24.18 13.75 23.53 14.00 22.00
C 12.11 22.19 10.54 24.82 12.00 26.00 Z"/>
</g>
<g fill="None" fill-opacity="0.0" stroke="#000000" stroke-opacity="0.00" stroke-width="0.3"><path d="
M 12.00 26.00 
C 12.39 26.31 14.35 26.70 15.00 27.00
C 16.61 27.75 17.76 29.31 19.00 30.00
C 20.03 30.41 20.95 30.51 22.00 31.00
C 23.71 31.79 24.68 33.16 26.00 34.00
C 30.98 36.54 36.06 39.08 41.00 42.00
C 42.36 42.80 43.89 44.38 45.00 45.00
C 45.91 45.36 47.05 45.67 48.00 46.00
C 50.07 46.71 49.91 46.72 52.00 46.00
C 52.96 45.67 54.12 45.35 55.00 45.00
C 56.32 44.27 57.36 42.76 59.00 42.00
C 60.01 41.53 61.04 41.38 62.00 41.00
C 63.19 40.34 64.61 38.82 66.00 38.00
C 70.91 35.09 76.04 32.53 81.00 30.00
C 82.25 29.21 83.60 27.90 85.00 27.00
C 86.43 26.09 88.10 26.04 88.00 24.00
C 87.36 21.95 84.00 23.66 83.00 24.00
C 80.34 25.39 77.57 26.69 75.00 28.00
C 73.61 28.88 72.72 30.20 71.00 31.00
C 69.99 31.47 68.96 31.62 68.00 32.00
C 66.81 32.66 65.39 34.18 64.00 35.00
C 55.43 40.07 51.96 43.88 43.00 39.00
C 41.85 38.38 40.92 37.59 40.00 37.00
C 34.46 34.34 29.40 30.94 24.00 28.00
C 22.85 27.38 21.92 26.59 21.00 26.00
C 19.67 25.36 15.22 21.88 14.00 22.00
C 13.75 23.53 11.45 24.18 12.00 26.00 Z"/>
</g>
<g fill="None" fill-opacity="0.0" stroke="#FDB4B3" stroke-opacity="0.17" stroke-width="0.3"><path d="
M 83.00 24.00 
C 84.00 23.66 87.36 21.95 88.00 24.00
C 87.79 19.87 83.83 23.56 83.00 24.00 Z"/>
</g>
<g fill="None" fill-opacity="0.0" stroke="#FBA7A6" stroke-opacity="0.25" stroke-width="0.3"><path d="
M 63.00 26.00 
C 64.64 25.24 65.68 23.73 67.00 23.00
C 65.17 23.72 64.42 25.10 63.00 26.00 Z"/>
</g>
<g fill="None" fill-opacity="0.0" stroke="#FFAEAC" stroke-opacity="0.27" stroke-width="0.3"><path d="
M 97.00 32.00 
C 95.67 28.40 94.02 26.01 92.00 23.00
C 93.60 25.97 95.57 29.17 97.00 32.00 Z"/>
</g>
<g fill="None" fill-opacity="0.0" stroke="#FEA197" stroke-opacity="0.33" stroke-width="0.3"><path d="
M 49.00 28.00 
C 47.78 27.24 46.46 25.87 45.00 25.00
C 46.30 25.95 47.03 27.61 49.00 28.00 Z"/>
</g>
<g fill="None" fill-opacity="0.0" stroke="#FC9F98" stroke-opacity="0.33" stroke-width="0.3"><path d="
M 51.00 28.00 
C 52.97 27.61 53.65 25.99 55.00 25.00
C 53.52 25.88 52.29 27.20 51.00 28.00 Z"/>
</g>
<g fill="None" fill-opacity="0.0" stroke="#FDB5B4" stroke-opacity="0.24" stroke-width="0.3"><path d="
M 24.00 28.00 
C 22.82 27.11 22.42 26.68 21.00 26.00
C 21.92 26.59 22.85 27.38 24.00 28.00 Z"/>
</g>
<g fill="None" fill-opacity="0.0" stroke="#F9999A" stroke-opacity="0.32" stroke-width="0.3"><path d="
M 66.00 29.00 
C 67.73 28.12 68.59 27.03 70.00 26.00
C 68.51 26.89 67.29 28.18 66.00 29.00 Z"/>
</g>
<g fill="None" fill-opacity="0.0" stroke="#FDA8A5" stroke-opacity="0.29" stroke-width="0.3"><path d="
M 19.00 30.00 
C 17.76 29.31 16.61 27.75 15.00 27.00
C 16.35 27.86 17.19 29.28 19.00 30.00 Z"/>
</g>
<g fill="None" fill-opacity="0.0" stroke="#FBABA5" stroke-opacity="0.27" stroke-width="0.3"><path d="
M 56.00 30.00 
C 57.48 29.19 58.76 27.69 60.00 27.00
C 58.15 27.73 57.43 29.03 56.00 30.00 Z"/>
</g>
<g fill="None" fill-opacity="0.0" stroke="#FEA19A" stroke-opacity="0.29" stroke-width="0.3"><path d="
M 81.00 30.00 
C 82.76 29.10 83.58 28.12 85.00 27.00
C 83.60 27.90 82.25 29.21 81.00 30.00 Z"/>
</g>
<g fill="None" fill-opacity="0.0" stroke="#FFBFC1" stroke-opacity="0.21" stroke-width="0.3"><path d="
M 71.00 31.00 
C 72.72 30.20 73.61 28.88 75.00 28.00
C 73.35 28.84 72.36 30.13 71.00 31.00 Z"/>
</g>
<g fill="None" fill-opacity="0.0" stroke="#000000" stroke-opacity="0.00" stroke-width="0.3"><path d="
M 14.00 36.00 
C 15.36 36.80 16.89 38.38 18.00 39.00
C 19.03 39.41 19.95 39.51 21.00 40.00
C 22.61 40.75 23.76 42.31 25.00 43.00
C 26.03 43.41 26.95 43.51 28.00 44.00
C 29.61 44.75 30.76 46.31 32.00 47.00
C 33.03 47.41 33.95 47.51 35.00 48.00
C 36.55 48.72 37.82 50.40 39.00 51.00
C 39.64 51.25 42.37 52.26 43.00 52.00
C 44.52 51.37 43.64 48.85 43.00 48.00
C 37.89 43.28 27.38 39.47 21.00 36.00
C 19.85 35.38 18.92 34.59 18.00 34.00
C 16.64 33.34 15.35 32.71 14.00 32.00
C 13.09 31.53 11.66 30.25 11.00 30.00
C 8.90 28.17 8.21 31.37 8.00 33.00
C 10.14 33.46 12.07 34.86 14.00 36.00 Z"/>
</g>
<g fill="None" fill-opacity="0.0" stroke="#F9A4A1" stroke-opacity="0.28" stroke-width="0.3"><path d="
M 86.00 32.00 
C 87.42 31.16 89.51 30.84 90.00 29.00
C 88.33 28.72 86.97 31.29 86.00 32.00 Z"/>
</g>
<g fill="None" fill-opacity="0.0" stroke="#000000" stroke-opacity="0.00" stroke-width="0.3"><path d="
M 86.00 32.00 
C 81.05 34.93 76.11 37.59 71.00 40.00
C 69.76 40.73 68.44 42.15 67.00 43.00
C 64.22 44.65 59.25 46.11 57.00 48.00
C 54.67 51.02 57.88 51.50 60.00 51.00
C 67.48 47.37 74.69 42.73 82.00 39.00
C 83.29 38.18 84.51 36.89 86.00 36.00
C 88.28 35.50 89.63 33.03 92.00 33.00
C 91.95 31.96 91.21 29.21 90.00 29.00
C 89.51 30.84 87.42 31.16 86.00 32.00 Z"/>
</g>
<g fill="None" fill-opacity="0.0" stroke="#F9BABB" stroke-opacity="0.23" stroke-width="0.3"><path d="
M 14.00 32.00 
C 12.66 31.04 12.94 30.42 11.00 30.00
C 11.66 30.25 13.09 31.53 14.00 32.00 Z"/>
</g>
<g fill="None" fill-opacity="0.0" stroke="#FDB1B4" stroke-opacity="0.26" stroke-width="0.3"><path d="
M 41.00 33.00 
C 39.77 32.22 38.48 30.87 37.00 30.00
C 38.36 30.99 39.28 32.12 41.00 33.00 Z"/>
</g>
<g fill="None" fill-opacity="0.0" stroke="#FFB6B1" stroke-opacity="0.25" stroke-width="0.3"><path d="
M 26.00 34.00 
C 24.68 33.16 23.71 31.79 22.00 31.00
C 23.29 31.83 24.37 33.17 26.00 34.00 Z"/>
</g>
<g fill="None" fill-opacity="0.0" stroke="#EFB5B6" stroke-opacity="0.30" stroke-width="0.3"><path d="
M 52.00 32.00 
C 50.91 32.19 49.09 32.18 48.00 32.00
C 50.03 32.70 49.91 32.78 52.00 32.00 Z"/>
</g>
<g fill="None" fill-opacity="0.0" stroke="#FFAFAD" stroke-opacity="0.25" stroke-width="0.3"><path d="
M 64.00 35.00 
C 65.39 34.18 66.81 32.66 68.00 32.00
C 66.13 32.74 65.43 33.95 64.00 35.00 Z"/>
</g>
<g fill="None" fill-opacity="0.0" stroke="#F9B7B3" stroke-opacity="0.25" stroke-width="0.3"><path d="
M 21.00 36.00 
C 19.83 35.12 19.41 34.68 18.00 34.00
C 18.92 34.59 19.85 35.38 21.00 36.00 Z"/>
</g>
<g fill="None" fill-opacity="0.0" stroke="#FAA29F" stroke-opacity="0.29" stroke-width="0.3"><path d="
M 18.00 39.00 
C 16.89 38.38 15.36 36.80 14.00 36.00
C 15.38 37.01 16.13 38.26 18.00 39.00 Z"/>
</g>
<g fill="None" fill-opacity="0.0" stroke="#FA9998" stroke-opacity="0.31" stroke-width="0.3"><path d="
M 82.00 39.00 
C 83.73 38.12 84.59 37.03 86.00 36.00
C 84.51 36.89 83.29 38.18 82.00 39.00 Z"/>
</g>
<g fill="None" fill-opacity="0.0" stroke="#000000" stroke-opacity="0.00" stroke-width="0.3"><path d="
M 6.00 41.00 
C 6.32 41.46 9.51 43.69 10.00 44.00
C 12.62 45.34 15.35 46.43 18.00 48.00
C 19.36 48.80 20.89 50.38 22.00 51.00
C 23.03 51.41 23.95 51.51 25.00 52.00
C 26.61 52.75 27.76 54.31 29.00 55.00
C 29.89 55.35 31.07 55.70 32.00 56.00
C 33.51 56.49 33.43 56.83 35.00 56.00
C 36.03 55.87 36.59 54.83 37.00 54.00
C 30.94 51.97 25.65 48.08 20.00 45.00
C 18.85 44.38 17.92 43.59 17.00 43.00
C 15.64 42.34 14.35 41.71 13.00 41.00
C 11.86 40.40 10.91 39.55 10.00 39.00
C 8.64 38.34 7.34 37.73 6.00 37.00
C 5.99 38.79 5.45 39.94 6.00 41.00 Z"/>
</g>
<g fill="None" fill-opacity="0.0" stroke="#FFC1B6" stroke-opacity="0.22" stroke-width="0.3"><path d="
M 43.00 39.00 
C 41.82 38.11 41.42 37.68 40.00 37.00
C 40.92 37.59 41.85 38.38 43.00 39.00 Z"/>
</g>
<g fill="None" fill-opacity="0.0" stroke="#000000" stroke-opacity="0.00" stroke-width="0.3"><path d="
M 71.00 50.00 
C 70.11 50.57 69.06 51.40 68.00 52.00
C 66.44 52.88 62.71 53.99 65.00 56.00
C 66.25 57.09 66.68 56.43 68.00 56.00
C 68.95 55.69 70.13 55.34 71.00 55.00
C 72.32 54.27 73.36 52.76 75.00 52.00
C 76.01 51.53 77.04 51.38 78.00 51.00
C 79.19 50.34 80.61 48.82 82.00 48.00
C 85.93 44.29 96.24 43.55 94.00 37.00
C 86.18 41.07 78.98 46.18 71.00 50.00 Z"/>
</g>
<g fill="None" fill-opacity="0.0" stroke="#F99FA0" stroke-opacity="0.31" stroke-width="0.3"><path d="
M 62.00 41.00 
C 63.87 40.26 64.57 39.05 66.00 38.00
C 64.61 38.82 63.19 40.34 62.00 41.00 Z"/>
</g>
<g fill="None" fill-opacity="0.0" stroke="#FFB9B5" stroke-opacity="0.23" stroke-width="0.3"><path d="
M 13.00 41.00 
C 11.81 40.15 11.47 39.65 10.00 39.00
C 10.91 39.55 11.86 40.40 13.00 41.00 Z"/>
</g>
<g fill="None" fill-opacity="0.0" stroke="#FF8981" stroke-opacity="0.35" stroke-width="0.3"><path d="
M 0.00 43.00 
C 1.49 42.74 0.86 41.00 1.00 40.00
C 1.00 40.00 0.50 40.00 0.00 40.00
L 0.00 43.00 Z"/>
</g>
<g fill="None" fill-opacity="0.0" stroke="#FDB5B3" stroke-opacity="0.27" stroke-width="0.3"><path d="
M 25.00 43.00 
C 23.76 42.31 22.61 40.75 21.00 40.00
C 22.35 40.86 23.19 42.28 25.00 43.00 Z"/>
</g>
<g fill="None" fill-opacity="0.0" stroke="#FFACAA" stroke-opacity="0.25" stroke-width="0.3"><path d="
M 67.00 43.00 
C 68.44 42.15 69.76 40.73 71.00 40.00
C 69.22 40.84 68.42 41.96 67.00 43.00 Z"/>
</g>
<g fill="None" fill-opacity="0.0" stroke="#FFA7A3" stroke-opacity="0.25" stroke-width="0.3"><path d="
M 10.00 44.00 
C 9.51 43.69 6.32 41.46 6.00 41.00
C 6.90 42.74 8.32 43.14 10.00 44.00 Z"/>
</g>
<g fill="None" fill-opacity="0.0" stroke="#FF7B85" stroke-opacity="0.42" stroke-width="0.3"><path d="
M 100.00 46.00 
L 100.00 41.00
C 100.00 41.00 99.00 41.01 99.00 41.00
C 99.14 42.57 98.39 45.16 100.00 46.00 Z"/>
</g>
<g fill="None" fill-opacity="0.0" stroke="#F9A8AA" stroke-opacity="0.28" stroke-width="0.3"><path d="
M 45.00 45.00 
C 43.89 44.38 42.36 42.80 41.00 42.00
C 42.38 43.01 43.13 44.26 45.00 45.00 Z"/>
</g>
<g fill="None" fill-opacity="0.0" stroke="#FDACAA" stroke-opacity="0.27" stroke-width="0.3"><path d="
M 55.00 45.00 
C 56.83 44.28 57.58 42.90 59.00 42.00
C 57.36 42.76 56.32 44.27 55.00 45.00 Z"/>
</g>
<g fill="None" fill-opacity="0.0" stroke="#FFB8B7" stroke-opacity="0.25" stroke-width="0.3"><path d="
M 20.00 45.00 
C 18.83 44.12 18.41 43.68 17.00 43.00
C 17.92 43.59 18.85 44.38 20.00 45.00 Z"/>
</g>
<g fill="None" fill-opacity="0.0" stroke="#FFB3B1" stroke-opacity="0.24" stroke-width="0.3"><path d="
M 32.00 47.00 
C 30.76 46.31 29.61 44.75 28.00 44.00
C 29.35 44.86 30.19 46.28 32.00 47.00 Z"/>
</g>
<g fill="None" fill-opacity="0.0" stroke="#000000" stroke-opacity="0.00" stroke-width="0.3"><path d="
M 10.00 53.00 
C 11.36 53.80 12.89 55.38 14.00 56.00
C 15.03 56.41 15.95 56.51 17.00 57.00
C 18.50 57.70 19.87 59.46 21.00 60.00
C 22.21 60.46 25.73 61.77 27.00 61.00
C 28.06 60.35 27.62 58.76 27.00 58.00
C 18.91 55.11 12.08 48.89 4.00 46.00
C 2.90 50.18 7.20 51.34 10.00 53.00 Z"/>
</g>
<g fill="None" fill-opacity="0.0" stroke="#FFA2A0" stroke-opacity="0.29" stroke-width="0.3"><path d="
M 52.00 46.00 
C 49.91 46.72 50.07 46.71 48.00 46.00
C 50.90 47.71 49.04 47.75 52.00 46.00 Z"/>
</g>
<g fill="None" fill-opacity="0.0" stroke="#000000" stroke-opacity="0.00" stroke-width="0.3"><path d="
M 73.00 58.00 
C 72.42 58.72 71.95 60.36 73.00 61.00
C 74.78 61.52 77.45 60.59 79.00 60.00
C 80.07 59.48 81.73 57.75 83.00 57.00
C 87.16 53.30 96.32 52.66 96.00 46.00
C 90.49 50.99 77.64 52.31 73.00 58.00 Z"/>
</g>
<g fill="None" fill-opacity="0.0" stroke="#FD9F9D" stroke-opacity="0.31" stroke-width="0.3"><path d="
M 22.00 51.00 
C 20.89 50.38 19.36 48.80 18.00 48.00
C 19.38 49.01 20.13 50.26 22.00 51.00 Z"/>
</g>
<g fill="None" fill-opacity="0.0" stroke="#FFB9B7" stroke-opacity="0.21" stroke-width="0.3"><path d="
M 39.00 51.00 
C 37.82 50.40 36.55 48.72 35.00 48.00
C 36.35 48.86 37.19 50.29 39.00 51.00 Z"/>
</g>
<g fill="None" fill-opacity="0.0" stroke="#FCA4A4" stroke-opacity="0.23" stroke-width="0.3"><path d="
M 43.00 52.00 
C 46.26 51.45 44.16 49.08 43.00 48.00
C 43.64 48.85 44.52 51.37 43.00 52.00 Z"/>
</g>
<g fill="None" fill-opacity="0.0" stroke="#FFADA3" stroke-opacity="0.25" stroke-width="0.3"><path d="
M 60.00 51.00 
C 57.88 51.50 54.67 51.02 57.00 48.00
C 52.92 51.43 57.54 52.19 60.00 51.00 Z"/>
</g>
<g fill="None" fill-opacity="0.0" stroke="#FD9E99" stroke-opacity="0.32" stroke-width="0.3"><path d="
M 78.00 51.00 
C 79.87 50.26 80.57 49.05 82.00 48.00
C 80.61 48.82 79.19 50.34 78.00 51.00 Z"/>
</g>
<g fill="None" fill-opacity="0.0" stroke="#FEC2B8" stroke-opacity="0.20" stroke-width="0.3"><path d="
M 68.00 52.00 
C 69.06 51.40 70.11 50.57 71.00 50.00
C 69.46 50.74 69.29 51.00 68.00 52.00 Z"/>
</g>
<g fill="None" fill-opacity="0.0" stroke="#FBA4A7" stroke-opacity="0.29" stroke-width="0.3"><path d="
M 29.00 55.00 
C 27.76 54.31 26.61 52.75 25.00 52.00
C 26.35 52.86 27.19 54.28 29.00 55.00 Z"/>
</g>
<g fill="None" fill-opacity="0.0" stroke="#FDABAD" stroke-opacity="0.28" stroke-width="0.3"><path d="
M 71.00 55.00 
C 72.83 54.28 73.58 52.90 75.00 52.00
C 73.36 52.76 72.32 54.27 71.00 55.00 Z"/>
</g>
<g fill="None" fill-opacity="0.0" stroke="#FF9E9D" stroke-opacity="0.30" stroke-width="0.3"><path d="
M 14.00 56.00 
C 12.89 55.38 11.36 53.80 10.00 53.00
C 11.38 54.01 12.13 55.26 14.00 56.00 Z"/>
</g>
<g fill="None" fill-opacity="0.0" stroke="#000000" stroke-opacity="0.00" stroke-width="0.3"><path d="
M 45.00 55.00 
C 43.76 55.73 42.44 57.15 41.00 58.00
C 37.71 59.95 34.36 61.41 31.00 63.00
C 29.76 63.73 28.44 65.15 27.00 66.00
C 24.36 67.56 21.67 68.74 19.00 70.00
C 17.00 71.19 15.46 73.03 13.00 74.00
C 13.00 74.00 12.03 73.88 12.00 74.00
C 11.53 75.84 13.43 77.08 15.00 77.00
C 15.00 77.00 15.53 77.13 16.00 77.00
C 17.21 75.34 18.28 75.02 20.00 74.00
C 24.91 71.09 30.04 68.53 35.00 66.00
C 36.39 65.12 37.28 63.80 39.00 63.00
C 40.01 62.53 41.04 62.38 42.00 62.00
C 43.29 61.29 44.43 59.79 46.00 59.00
C 49.60 57.20 50.40 57.20 54.00 59.00
C 55.54 59.77 56.79 61.33 58.00 62.00
C 59.03 62.41 59.95 62.51 61.00 63.00
C 62.71 63.79 63.68 65.16 65.00 66.00
C 69.98 68.54 75.06 71.08 80.00 74.00
C 81.76 75.04 82.80 75.35 84.00 77.00
C 84.00 77.00 84.50 76.97 85.00 77.00
C 86.55 77.08 88.48 75.85 88.00 74.00
C 88.00 74.00 87.47 74.13 87.00 74.00
C 85.07 73.48 84.35 71.86 83.00 71.00
C 73.81 66.31 54.69 50.42 45.00 55.00 Z"/>
</g>
<g fill="None" fill-opacity="0.0" stroke="#FF716C" stroke-opacity="0.47" stroke-width="0.3"><path d="
M 0.00 59.00 
C 0.50 59.00 1.00 59.00 1.00 59.00
C 0.88 57.74 1.49 55.54 0.00 55.00
L 0.00 59.00 Z"/>
</g>
<g fill="None" fill-opacity="0.0" stroke="#FD9596" stroke-opacity="0.31" stroke-width="0.3"><path d="
M 5.00 58.00 
C 4.99 57.55 5.97 55.76 6.00 56.00
C 5.80 54.12 4.30 56.04 5.00 58.00 Z"/>
</g>
<g fill="None" fill-opacity="0.0" stroke="#FAAFAF" stroke-opacity="0.26" stroke-width="0.3"><path d="
M 41.00 58.00 
C 42.44 57.15 43.76 55.73 45.00 55.00
C 43.22 55.84 42.42 56.96 41.00 58.00 Z"/>
</g>
<g fill="None" fill-opacity="0.0" stroke="#FA989B" stroke-opacity="0.33" stroke-width="0.3"><path d="
M 93.00 57.00 
C 94.51 56.80 95.69 56.11 95.00 59.00
C 96.76 58.50 95.72 56.28 96.00 55.00
C 94.27 54.02 93.84 56.65 93.00 57.00 Z"/>
</g>
<g fill="None" fill-opacity="0.0" stroke="#FF7378" stroke-opacity="0.45" stroke-width="0.3"><path d="
M 99.00 59.00 
C 99.00 58.99 100.00 59.00 100.00 59.00
L 100.00 55.00
C 98.35 55.51 99.12 57.71 99.00 59.00 Z"/>
</g>
<g fill="None" fill-opacity="0.0" stroke="#000000" stroke-opacity="0.00" stroke-width="0.3"><path d="
M 5.00 58.00 
C 5.04 60.74 7.11 60.80 9.00 62.00
C 10.27 62.81 11.94 64.41 13.00 65.00
C 13.47 65.19 15.53 65.98 16.00 66.00
C 16.85 66.04 18.36 65.59 19.00 65.00
C 19.39 64.21 8.59 55.61 6.00 56.00
C 5.97 55.76 4.99 57.55 5.00 58.00 Z"/>
</g>
<g fill="None" fill-opacity="0.0" stroke="#FA918C" stroke-opacity="0.37" stroke-width="0.3"><path d="
M 35.00 56.00 
C 33.43 56.83 33.51 56.49 32.00 56.00
C 34.11 57.18 32.81 58.30 35.00 56.00 Z"/>
</g>
<g fill="None" fill-opacity="0.0" stroke="#F6928A" stroke-opacity="0.36" stroke-width="0.3"><path d="
M 68.00 56.00 
C 66.68 56.43 66.25 57.09 65.00 56.00
C 66.42 58.85 66.48 56.85 68.00 56.00 Z"/>
</g>
<g fill="None" fill-opacity="0.0" stroke="#000000" stroke-opacity="0.00" stroke-width="0.3"><path d="
M 93.00 57.00 
C 90.79 57.92 79.75 63.83 81.00 65.00
C 81.78 65.73 82.95 66.02 84.00 66.00
C 86.26 65.45 94.45 61.31 95.00 59.00
C 95.69 56.11 94.51 56.80 93.00 57.00 Z"/>
</g>
<g fill="None" fill-opacity="0.0" stroke="#FFADA4" stroke-opacity="0.28" stroke-width="0.3"><path d="
M 21.00 60.00 
C 19.87 59.46 18.50 57.70 17.00 57.00
C 18.35 57.86 19.17 59.30 21.00 60.00 Z"/>
</g>
<g fill="None" fill-opacity="0.0" stroke="#FFB3AD" stroke-opacity="0.27" stroke-width="0.3"><path d="
M 79.00 60.00 
C 80.89 59.28 81.57 58.05 83.00 57.00
C 81.73 57.75 80.07 59.48 79.00 60.00 Z"/>
</g>
<g fill="None" fill-opacity="0.0" stroke="#FFA09D" stroke-opacity="0.22" stroke-width="0.3"><path d="
M 27.00 61.00 
C 29.69 60.21 28.23 59.07 27.00 58.00
C 27.62 58.76 28.06 60.35 27.00 61.00 Z"/>
</g>
<g fill="None" fill-opacity="0.0" stroke="#FFAEA9" stroke-opacity="0.22" stroke-width="0.3"><path d="
M 73.00 61.00 
C 71.95 60.36 72.42 58.72 73.00 58.00
C 71.80 59.04 70.26 60.20 73.00 61.00 Z"/>
</g>
<g fill="None" fill-opacity="0.0" stroke="#000000" stroke-opacity="0.00" stroke-width="0.3"><path d="
M 0.00 100.00 
L 40.00 100.00
C 40.00 99.50 40.00 99.00 40.00 99.00
C 32.20 98.26 25.25 94.65 19.00 90.00
C 15.70 87.55 12.35 84.31 10.00 81.00
C 9.08 79.71 8.67 78.27 8.00 77.00
C 7.11 75.63 5.85 74.66 5.00 73.00
C 2.62 68.37 1.50 64.19 1.00 59.00
C 1.00 59.00 0.50 59.00 0.00 59.00
L 0.00 100.00 Z"/>
</g>
<g fill="None" fill-opacity="0.0" stroke="#FFA39B" stroke-opacity="0.27" stroke-width="0.3"><path d="
M 42.00 62.00 
C 43.82 61.28 44.59 59.88 46.00 59.00
C 44.43 59.79 43.29 61.29 42.00 62.00 Z"/>
</g>
<g fill="None" fill-opacity="0.0" stroke="#FDA4A4" stroke-opacity="0.28" stroke-width="0.3"><path d="
M 58.00 62.00 
C 56.79 61.33 55.54 59.77 54.00 59.00
C 55.34 59.84 56.20 61.28 58.00 62.00 Z"/>
</g>
<g fill="None" fill-opacity="0.0" stroke="#000000" stroke-opacity="0.00" stroke-width="0.3"><path d="
M 96.00 71.00 
C 94.96 73.41 93.21 75.05 92.00 77.00
C 91.30 78.43 91.01 79.58 90.00 81.00
C 87.61 84.36 84.24 87.59 81.00 90.00
C 74.34 94.95 67.29 98.28 59.00 99.00
C 58.99 99.00 59.00 100.00 59.00 100.00
L 100.00 100.00
L 100.00 59.00
C 100.00 59.00 99.00 58.99 99.00 59.00
C 98.58 63.42 97.71 67.03 96.00 71.00 Z"/>
</g>
<g fill="None" fill-opacity="0.0" stroke="#FEA5A7" stroke-opacity="0.26" stroke-width="0.3"><path d="
M 13.00 65.00 
C 11.94 64.41 10.27 62.81 9.00 62.00
C 10.38 63.08 11.11 64.25 13.00 65.00 Z"/>
</g>
<g fill="None" fill-opacity="0.0" stroke="#FBB2C8" stroke-opacity="0.18" stroke-width="0.3"><path d="
M 47.00 64.00 
C 47.65 63.70 49.73 62.03 50.00 62.00
C 47.85 62.02 48.35 63.12 47.00 64.00 Z"/>
</g>
<g fill="None" fill-opacity="0.0" stroke="#000000" stroke-opacity="0.00" stroke-width="0.3"><path d="
M 47.00 64.00 
C 45.99 64.47 44.96 64.62 44.00 65.00
C 42.81 65.66 41.39 67.18 40.00 68.00
C 33.58 71.80 23.27 75.16 18.00 80.00
C 17.08 81.32 17.68 83.00 19.00 84.00
C 19.00 84.00 19.50 83.99 20.00 84.00
C 20.92 83.31 21.82 82.55 23.00 82.00
C 24.01 81.53 25.04 81.38 26.00 81.00
C 27.32 80.27 28.36 78.76 30.00 78.00
C 31.01 77.53 32.04 77.38 33.00 77.00
C 34.19 76.34 35.61 74.82 37.00 74.00
C 39.62 72.45 42.41 71.32 45.00 70.00
C 46.38 69.12 47.02 67.39 49.00 67.00
C 49.48 66.91 50.52 66.91 51.00 67.00
C 52.94 67.38 53.69 69.28 55.00 70.00
C 56.03 70.41 56.95 70.51 58.00 71.00
C 59.71 71.79 60.68 73.16 62.00 74.00
C 64.62 75.34 67.35 76.43 70.00 78.00
C 71.36 78.80 72.89 80.38 74.00 81.00
C 75.02 81.41 75.95 81.52 77.00 82.00
C 78.08 82.50 79.53 82.88 80.00 84.00
C 81.58 83.16 83.58 81.76 82.00 80.00
C 79.53 77.73 73.58 76.36 70.75 74.25 C 67.92 72.15 63.16 68.99 60.08 67.92 C 57.00 66.85 52.83 61.65 50.00 62.00
C 49.73 62.03 47.65 63.70 47.00 64.00 Z"/>
</g>
<g fill="None" fill-opacity="0.0" stroke="#FDA8A4" stroke-opacity="0.29" stroke-width="0.3"><path d="
M 27.00 66.00 
C 28.44 65.15 29.76 63.73 31.00 63.00
C 29.22 63.84 28.42 64.96 27.00 66.00 Z"/>
</g>
<g fill="None" fill-opacity="0.0" stroke="#FFB4B0" stroke-opacity="0.25" stroke-width="0.3"><path d="
M 35.00 66.00 
C 36.65 65.16 37.64 63.87 39.00 63.00
C 37.28 63.80 36.39 65.12 35.00 66.00 Z"/>
</g>
<g fill="None" fill-opacity="0.0" stroke="#FFA7A6" stroke-opacity="0.26" stroke-width="0.3"><path d="
M 65.00 66.00 
C 63.68 65.16 62.71 63.79 61.00 63.00
C 62.29 63.83 63.37 65.17 65.00 66.00 Z"/>
</g>
<g fill="None" fill-opacity="0.0" stroke="#FFADAA" stroke-opacity="0.20" stroke-width="0.3"><path d="
M 16.00 66.00 
C 17.46 66.47 17.89 67.28 19.00 65.00
C 18.36 65.59 16.85 66.04 16.00 66.00 Z"/>
</g>
<g fill="None" fill-opacity="0.0" stroke="#FCAEAB" stroke-opacity="0.25" stroke-width="0.3"><path d="
M 40.00 68.00 
C 41.39 67.18 42.81 65.66 44.00 65.00
C 42.13 65.74 41.43 66.95 40.00 68.00 Z"/>
</g>
<g fill="None" fill-opacity="0.0" stroke="#FFABA8" stroke-opacity="0.21" stroke-width="0.3"><path d="
M 84.00 66.00 
C 82.95 66.02 81.78 65.73 81.00 65.00
C 82.10 67.26 82.55 66.35 84.00 66.00 Z"/>
</g>
<g fill="None" fill-opacity="0.0" stroke="#000000" stroke-opacity="0.00" stroke-width="0.3"><path d="
M 8.00 69.00 
C 8.87 70.32 12.07 69.95 11.00 68.00
C 10.78 67.59 6.53 66.75 8.00 69.00 Z"/>
</g>
<g fill="None" fill-opacity="0.0" stroke="#FFB6B3" stroke-opacity="0.26" stroke-width="0.3"><path d="
M 45.00 70.00 
C 46.64 69.16 47.65 67.85 49.00 67.00
C 47.02 67.39 46.38 69.12 45.00 70.00 Z"/>
</g>
<g fill="None" fill-opacity="0.0" stroke="#FFA9AB" stroke-opacity="0.26" stroke-width="0.3"><path d="
M 55.00 70.00 
C 53.69 69.28 52.94 67.38 51.00 67.00
C 52.34 67.84 53.20 69.29 55.00 70.00 Z"/>
</g>
<g fill="None" fill-opacity="0.0" stroke="#000000" stroke-opacity="0.00" stroke-width="0.3"><path d="
M 89.00 68.00 
C 87.84 70.12 91.29 70.09 92.00 69.00
C 93.42 66.83 89.31 67.44 89.00 68.00 Z"/>
</g>
<g fill="None" fill-opacity="0.0" stroke="#FFA6A2" stroke-opacity="0.24" stroke-width="0.3"><path d="
M 8.00 69.00 
C 8.24 72.42 13.85 70.04 11.00 68.00
C 12.07 69.95 8.87 70.32 8.00 69.00 Z"/>
</g>
<g fill="None" fill-opacity="0.0" stroke="#FFA5A8" stroke-opacity="0.24" stroke-width="0.3"><path d="
M 92.00 69.00 
C 91.29 70.09 87.84 70.12 89.00 68.00
C 86.11 70.06 91.76 72.41 92.00 69.00 Z"/>
</g>
<g fill="None" fill-opacity="0.0" stroke="#FDB3AF" stroke-opacity="0.25" stroke-width="0.3"><path d="
M 13.00 74.00 
C 15.46 73.03 17.00 71.19 19.00 70.00
C 16.77 71.05 14.34 71.86 13.00 74.00 Z"/>
</g>
<g fill="None" fill-opacity="0.0" stroke="#FFB9B1" stroke-opacity="0.23" stroke-width="0.3"><path d="
M 62.00 74.00 
C 60.68 73.16 59.71 71.79 58.00 71.00
C 59.29 71.83 60.37 73.17 62.00 74.00 Z"/>
</g>
<g fill="None" fill-opacity="0.0" stroke="#FA9E9C" stroke-opacity="0.31" stroke-width="0.3"><path d="
M 87.00 74.00 
C 85.83 72.39 84.80 71.92 83.00 71.00
C 84.35 71.86 85.07 73.48 87.00 74.00 Z"/>
</g>
<g fill="None" fill-opacity="0.0" stroke="#FCB0B1" stroke-opacity="0.27" stroke-width="0.3"><path d="
M 92.00 77.00 
C 93.21 75.05 94.96 73.41 96.00 71.00
C 94.99 72.85 93.08 74.79 92.00 77.00 Z"/>
</g>
<g fill="None" fill-opacity="0.0" stroke="#000000" stroke-opacity="0.00" stroke-width="0.3"><path d="
M 42.00 76.00 
C 40.71 76.82 39.49 78.11 38.00 79.00
C 35.03 80.76 32.13 82.50 29.00 84.00
C 28.11 84.57 27.26 85.69 26.00 86.00
C 26.00 86.00 25.20 85.75 25.00 86.00
C 22.66 88.83 27.45 88.53 29.00 88.00
C 29.99 87.42 31.02 87.39 32.00 87.00
C 33.32 86.27 34.36 84.76 36.00 84.00
C 37.01 83.53 38.04 83.38 39.00 83.00
C 40.19 82.34 41.61 80.82 43.00 80.00
C 44.89 78.88 46.91 77.47 49.00 77.00
C 51.86 76.36 51.47 77.57 54.00 79.00
C 55.04 79.40 55.94 79.51 57.00 80.00
C 58.61 80.75 59.76 82.32 61.00 83.00
C 62.03 83.41 62.95 83.51 64.00 84.00
C 65.61 84.75 66.76 86.31 68.00 87.00
C 69.00 87.40 69.97 87.56 71.00 88.00
C 72.14 88.49 72.65 88.99 74.00 89.00
C 74.00 89.00 74.66 89.24 75.00 89.00
C 76.05 88.26 75.63 86.84 75.00 86.00
C 69.97 81.37 63.62 81.77 58.23 76.77 C 52.84 71.77 48.10 72.89 42.00 76.00 Z"/>
</g>
<g fill="None" fill-opacity="0.0" stroke="#FDA7A8" stroke-opacity="0.29" stroke-width="0.3"><path d="
M 8.00 77.00 
C 7.15 75.37 5.86 74.35 5.00 73.00
C 5.85 74.66 7.11 75.63 8.00 77.00 Z"/>
</g>
<g fill="None" fill-opacity="0.0" stroke="#FFA094" stroke-opacity="0.27" stroke-width="0.3"><path d="
M 15.00 77.00 
C 13.43 77.08 11.53 75.84 12.00 74.00
C 10.03 75.91 13.16 78.39 15.00 77.00 Z"/>
</g>
<g fill="None" fill-opacity="0.0" stroke="#FC9D9B" stroke-opacity="0.31" stroke-width="0.3"><path d="
M 16.00 77.00 
C 17.96 76.47 18.60 75.02 20.00 74.00
C 18.28 75.02 17.21 75.34 16.00 77.00 Z"/>
</g>
<g fill="None" fill-opacity="0.0" stroke="#FB9E9B" stroke-opacity="0.32" stroke-width="0.3"><path d="
M 33.00 77.00 
C 34.87 76.26 35.57 75.05 37.00 74.00
C 35.61 74.82 34.19 76.34 33.00 77.00 Z"/>
</g>
<g fill="None" fill-opacity="0.0" stroke="#FBA29D" stroke-opacity="0.31" stroke-width="0.3"><path d="
M 84.00 77.00 
C 82.80 75.35 81.76 75.04 80.00 74.00
C 81.35 74.99 82.04 76.47 84.00 77.00 Z"/>
</g>
<g fill="None" fill-opacity="0.0" stroke="#FFA59D" stroke-opacity="0.29" stroke-width="0.3"><path d="
M 85.00 77.00 
C 86.90 78.44 89.90 75.85 88.00 74.00
C 88.48 75.85 86.55 77.08 85.00 77.00 Z"/>
</g>
<g fill="None" fill-opacity="0.0" stroke="#FFA49C" stroke-opacity="0.26" stroke-width="0.3"><path d="
M 38.00 79.00 
C 39.49 78.11 40.71 76.82 42.00 76.00
C 40.27 76.88 39.41 77.97 38.00 79.00 Z"/>
</g>
<g fill="None" fill-opacity="0.0" stroke="#FCA6A5" stroke-opacity="0.29" stroke-width="0.3"><path d="
M 49.00 77.00 
C 50.94 76.97 52.29 78.34 54.00 79.00
C 51.47 77.57 51.86 76.36 49.00 77.00 Z"/>
</g>
<g fill="None" fill-opacity="0.0" stroke="#FB9D9B" stroke-opacity="0.28" stroke-width="0.3"><path d="
M 26.00 81.00 
C 27.83 80.28 28.58 78.90 30.00 78.00
C 28.36 78.76 27.32 80.27 26.00 81.00 Z"/>
</g>
<g fill="None" fill-opacity="0.0" stroke="#FBA7AA" stroke-opacity="0.29" stroke-width="0.3"><path d="
M 74.00 81.00 
C 72.89 80.38 71.36 78.80 70.00 78.00
C 71.38 79.01 72.13 80.26 74.00 81.00 Z"/>
</g>
<g fill="None" fill-opacity="0.0" stroke="#FF9C9D" stroke-opacity="0.29" stroke-width="0.3"><path d="
M 19.00 84.00 
C 17.68 83.00 17.08 81.32 18.00 80.00
C 16.27 81.59 16.02 82.93 19.00 84.00 Z"/>
</g>
<g fill="None" fill-opacity="0.0" stroke="#FDA79F" stroke-opacity="0.29" stroke-width="0.3"><path d="
M 39.00 83.00 
C 40.87 82.26 41.57 81.05 43.00 80.00
C 41.61 80.82 40.19 82.34 39.00 83.00 Z"/>
</g>
<g fill="None" fill-opacity="0.0" stroke="#FEA1A1" stroke-opacity="0.29" stroke-width="0.3"><path d="
M 61.00 83.00 
C 59.76 82.32 58.61 80.75 57.00 80.00
C 58.35 80.86 59.19 82.28 61.00 83.00 Z"/>
</g>
<g fill="None" fill-opacity="0.0" stroke="#FFA09D" stroke-opacity="0.30" stroke-width="0.3"><path d="
M 77.00 82.00 
C 79.78 83.82 86.23 83.88 82.00 80.00
C 83.58 81.76 81.58 83.16 80.00 84.00
C 79.53 82.88 78.08 82.50 77.00 82.00 Z"/>
</g>
<g fill="None" fill-opacity="0.0" stroke="#FFC4C2" stroke-opacity="0.16" stroke-width="0.3"><path d="
M 19.00 90.00 
C 16.28 87.63 12.36 83.81 10.00 81.00
C 12.35 84.31 15.70 87.55 19.00 90.00 Z"/>
</g>
<g fill="None" fill-opacity="0.0" stroke="#FFD6CE" stroke-opacity="0.07" stroke-width="0.3"><path d="
M 81.00 90.00 
C 84.24 87.59 87.61 84.36 90.00 81.00
C 87.68 83.76 83.77 87.58 81.00 90.00 Z"/>
</g>
<g fill="None" fill-opacity="0.0" stroke="#FABDC0" stroke-opacity="0.21" stroke-width="0.3"><path d="
M 20.00 84.00 
C 22.15 84.06 21.68 82.86 23.00 82.00
C 21.82 82.55 20.92 83.31 20.00 84.00 Z"/>
</g>
<g fill="None" fill-opacity="0.0" stroke="#000000" stroke-opacity="0.00" stroke-width="0.3"><path d="
M 35.00 90.00 
C 34.69 90.25 32.00 92.13 33.00 93.00
C 33.39 93.21 34.50 93.00 35.00 93.00
C 36.72 92.99 37.49 92.64 39.00 92.00
C 46.40 88.86 48.13 84.34 56.00 89.00
C 57.76 90.04 58.80 90.35 60.00 92.00
C 60.00 92.00 60.63 91.78 61.00 92.00
C 62.56 92.94 64.13 93.19 66.00 93.00
C 66.00 93.00 66.87 93.22 67.00 93.00
C 67.34 92.43 66.39 90.39 66.00 90.00
C 63.52 88.13 58.94 86.60 56.00 85.00
C 54.98 84.45 53.80 83.39 53.00 83.00
C 48.01 81.25 39.23 86.61 35.00 90.00 Z"/>
</g>
<g fill="None" fill-opacity="0.0" stroke="#FFC1BE" stroke-opacity="0.23" stroke-width="0.3"><path d="
M 56.00 85.00 
C 54.70 84.02 54.73 83.61 53.00 83.00
C 53.80 83.39 54.98 84.45 56.00 85.00 Z"/>
</g>
<g fill="None" fill-opacity="0.0" stroke="#FFCCC8" stroke-opacity="0.17" stroke-width="0.3"><path d="
M 26.00 86.00 
C 27.26 85.69 28.11 84.57 29.00 84.00
C 27.40 84.77 27.04 84.27 26.00 86.00 Z"/>
</g>
<g fill="None" fill-opacity="0.0" stroke="#FBA5A3" stroke-opacity="0.27" stroke-width="0.3"><path d="
M 32.00 87.00 
C 33.83 86.28 34.58 84.90 36.00 84.00
C 34.36 84.76 33.32 86.27 32.00 87.00 Z"/>
</g>
<g fill="None" fill-opacity="0.0" stroke="#FDA7A6" stroke-opacity="0.26" stroke-width="0.3"><path d="
M 68.00 87.00 
C 66.76 86.31 65.61 84.75 64.00 84.00
C 65.35 84.86 66.19 86.28 68.00 87.00 Z"/>
</g>
<g fill="None" fill-opacity="0.0" stroke="#FFB1AD" stroke-opacity="0.24" stroke-width="0.3"><path d="
M 29.00 88.00 
C 27.45 88.53 22.66 88.83 25.00 86.00
C 20.95 87.80 26.41 89.52 29.00 88.00 Z"/>
</g>
<g fill="None" fill-opacity="0.0" stroke="#FF989C" stroke-opacity="0.27" stroke-width="0.3"><path d="
M 75.00 89.00 
C 77.65 88.07 76.26 87.16 75.00 86.00
C 75.63 86.84 76.05 88.26 75.00 89.00 Z"/>
</g>
<g fill="None" fill-opacity="0.0" stroke="#FCA8A1" stroke-opacity="0.30" stroke-width="0.3"><path d="
M 74.00 89.00 
C 72.65 88.99 72.14 88.49 71.00 88.00
C 72.41 88.83 72.11 90.83 74.00 89.00 Z"/>
</g>
<g fill="None" fill-opacity="0.0" stroke="#FFBCB5" stroke-opacity="0.21" stroke-width="0.3"><path d="
M 60.00 92.00 
C 58.80 90.35 57.76 90.04 56.00 89.00
C 57.35 89.99 58.04 91.47 60.00 92.00 Z"/>
</g>
<g fill="None" fill-opacity="0.0" stroke="#FFB7B9" stroke-opacity="0.21" stroke-width="0.3"><path d="
M 33.00 93.00 
C 32.00 92.13 34.69 90.25 35.00 90.00
C 34.29 90.46 30.09 91.44 33.00 93.00 Z"/>
</g>
<g fill="None" fill-opacity="0.0" stroke="#FF9D9C" stroke-opacity="0.26" stroke-width="0.3"><path d="
M 67.00 93.00 
C 69.00 91.83 67.13 90.85 66.00 90.00
C 66.39 90.39 67.34 92.43 67.00 93.00 Z"/>
</g>
<g fill="None" fill-opacity="0.0" stroke="#000000" stroke-opacity="0.00" stroke-width="0.3"><path d="
M 44.00 94.00 
C 44.54 94.40 46.44 95.87 47.00 96.00
C 48.98 96.12 51.01 96.00 53.00 96.00
C 53.37 95.92 55.30 95.22 56.00 95.00
C 56.00 94.50 56.00 94.00 56.00 94.00
C 53.14 94.25 51.68 91.05 49.00 91.00
C 48.80 93.54 45.14 92.97 44.00 94.00 Z"/>
</g>
<g fill="None" fill-opacity="0.0" stroke="#FBB6B2" stroke-opacity="0.19" stroke-width="0.3"><path d="
M 35.00 93.00 
C 37.72 94.25 36.74 93.30 39.00 92.00
C 37.49 92.64 36.72 92.99 35.00 93.00 Z"/>
</g>
<g fill="None" fill-opacity="0.0" stroke="#F9AEA4" stroke-opacity="0.26" stroke-width="0.3"><path d="
M 66.00 93.00 
C 64.13 93.19 62.56 92.94 61.00 92.00
C 62.21 94.29 64.18 94.46 66.00 93.00 Z"/>
</g>
<g fill="None" fill-opacity="0.0" stroke="#FFABA8" stroke-opacity="0.24" stroke-width="0.3"><path d="
M 47.00 96.00 
C 46.44 95.87 44.54 94.40 44.00 94.00
C 42.97 94.13 42.41 95.17 42.00 96.00
C 43.66 96.08 45.34 95.90 47.00 96.00 Z"/>
</g>
<g fill="None" fill-opacity="0.0" stroke="#FF8284" stroke-opacity="0.40" stroke-width="0.3"><path d="
M 56.00 95.00 
C 56.00 95.50 56.00 96.00 56.00 96.00
C 58.38 96.21 57.74 94.40 56.00 94.00
C 56.00 94.00 56.00 94.50 56.00 95.00 Z"/>
</g>
<g fill="None" fill-opacity="0.0" stroke="#FFC2C4" stroke-opacity="0.08" stroke-width="0.3"><path d="
M 53.00 96.00 
C 53.39 96.00 55.76 96.26 56.00 96.00
C 56.00 96.00 56.00 95.50 56.00 95.00
C 55.30 95.22 53.37 95.92 53.00 96.00 Z"/>
</g>
<g fill="None" fill-opacity="0.0" stroke="#FF7F7E" stroke-opacity="0.43" stroke-width="0.3"><path d="
M 40.00 100.00 
L 46.00 100.00
C 44.91 98.15 41.91 99.18 40.00 99.00
C 40.00 99.00 40.00 99.50 40.00 100.00 Z"/>
</g>
<g fill="None" fill-opacity="0.0" stroke="#FF746D" stroke-opacity="0.47" stroke-width="0.3"><path d="
M 54.00 100.00 
L 59.00 100.00
C 59.00 100.00 58.99 99.00 59.00 99.00
C 57.43 99.14 54.84 98.39 54.00 100.00 Z"/>
</g>
<g fill="#000000" fill-opacity="0.00" stroke="None">
<path d="
M 0.00 40.00 
C 0.50 40.00 1.00 40.00 1.00 40.00
C 2.07 32.16 5.25 25.38 10.00 19.00
C 12.45 15.70 15.69 12.35 19.00 10.00
C 20.40 9.00 21.63 8.72 23.00 8.00
C 24.37 7.11 25.34 5.85 27.00 5.00
C 31.24 2.83 35.25 1.55 40.00 1.00
C 40.06 0.99 40.00 0.00 40.00 0.00
L 0.00 0.00
L 0.00 40.00 Z"/>
</g>
<g fill="#FF948D" fill-opacity="0.26" stroke="None">
<path d="
M 40.00 1.00 
C 41.29 0.85 43.49 1.67 44.00 0.00
L 40.00 0.00
C 40.00 0.00 40.06 0.99 40.00 1.00 Z"/>
</g>
<g fill="#E73A32" fill-opacity="0.87" stroke="None">
<path d="
M 40.00 1.00 
C 35.25 1.55 31.24 2.83 27.00 5.00
C 25.65 5.86 24.63 7.15 23.00 8.00
C 21.63 8.72 20.40 9.00 19.00 10.00
C 16.19 12.36 12.37 16.28 10.00 19.00
C 5.25 25.38 2.07 32.16 1.00 40.00
C 0.86 41.00 1.49 42.74 0.00 43.00
L 0.00 55.00
C 1.49 55.54 0.88 57.74 1.00 59.00
C 1.50 64.19 2.62 68.37 5.00 73.00
C 5.86 74.35 7.15 75.37 8.00 77.00
C 8.67 78.27 9.08 79.71 10.00 81.00
C 12.36 83.81 16.28 87.63 19.00 90.00
C 25.25 94.65 32.20 98.26 40.00 99.00
C 41.91 99.18 44.91 98.15 46.00 100.00
L 54.00 100.00
C 54.84 98.39 57.43 99.14 59.00 99.00
C 67.29 98.28 74.34 94.95 81.00 90.00
C 83.77 87.58 87.68 83.76 90.00 81.00
C 91.01 79.58 91.30 78.43 92.00 77.00
C 93.08 74.79 94.99 72.85 96.00 71.00
C 97.71 67.03 98.58 63.42 99.00 59.00
C 99.12 57.71 98.35 55.51 100.00 55.00
L 100.00 46.00
C 98.39 45.16 99.14 42.57 99.00 41.00
C 98.69 37.46 98.20 35.25 97.00 32.00
C 95.57 29.17 93.60 25.97 92.00 23.00
C 91.10 21.33 90.28 19.62 89.00 18.00
C 86.74 15.55 83.48 12.08 81.00 10.00
C 79.60 9.00 78.37 8.72 77.00 8.00
C 75.39 7.16 74.29 5.82 73.00 5.00
C 69.96 3.44 67.37 2.55 64.00 2.00
C 62.31 1.72 62.19 2.11 61.00 1.00
C 60.51 1.06 60.00 1.00 60.00 1.00
C 57.48 1.00 53.70 1.78 52.00 0.00
L 44.00 0.00
C 43.49 1.67 41.29 0.85 40.00 1.00
M 56.00 6.00 
C 54.33 6.51 52.69 7.55 51.00 8.00
C 48.19 8.74 49.39 8.40 47.00 7.00
C 46.15 6.67 44.72 6.38 44.00 6.00
C 43.19 5.57 42.11 5.05 42.00 4.00
C 43.67 4.00 45.33 4.00 47.00 4.00
C 48.98 3.88 51.01 4.00 53.00 4.00
C 53.39 4.00 55.76 3.74 56.00 4.00
C 58.39 3.79 57.64 5.62 56.00 6.00
M 43.00 10.00 
C 44.35 10.64 44.88 11.22 46.00 12.00
C 49.60 13.79 50.39 13.80 54.00 12.00
C 55.41 11.12 56.18 9.72 58.00 9.00
C 58.92 8.64 60.01 8.39 61.00 8.00
C 63.26 6.68 62.29 5.76 65.00 7.00
C 65.50 7.00 66.84 6.77 67.00 7.00
C 68.99 6.57 69.35 9.14 68.00 9.00
C 67.73 9.67 64.71 10.72 64.00 11.00
C 63.04 11.38 62.01 11.53 61.00 12.00
C 59.64 12.87 58.65 14.16 57.00 15.00
C 55.48 15.78 52.65 17.53 51.00 18.00
C 48.22 18.80 48.40 17.56 46.00 16.00
C 44.95 15.52 44.02 15.40 43.00 15.00
C 41.19 14.28 40.35 12.86 39.00 12.00
C 37.94 11.51 37.04 11.40 36.00 11.00
C 34.21 10.30 30.84 8.94 33.00 7.00
C 35.59 4.68 40.57 8.84 43.00 10.00
M 74.00 11.00 
C 74.49 10.93 75.00 11.00 75.00 11.00
C 77.71 11.94 76.23 12.87 75.00 14.00
C 71.83 18.22 59.89 22.10 55.00 25.00
C 53.65 25.99 52.97 27.61 51.00 28.00
C 50.52 28.09 49.48 28.09 49.00 28.00
C 47.03 27.61 46.30 25.95 45.00 25.00
C 40.06 22.08 34.98 19.54 30.00 17.00
C 28.20 16.08 27.17 15.61 26.00 14.00
C 25.53 13.87 25.00 14.00 25.00 14.00
C 23.04 13.31 22.90 11.61 25.00 11.00
C 28.42 8.85 34.04 15.42 37.25 16.75 C 40.45 18.09 46.52 21.39 49.00 24.00
C 55.88 21.04 62.29 16.57 69.00 13.00
C 70.93 11.67 71.60 9.25 74.00 11.00
M 20.00 16.00 
C 20.36 16.23 21.00 16.00 21.00 16.00
C 22.96 16.53 23.65 18.01 25.00 19.00
C 31.29 22.73 40.84 30.78 48.00 32.00
C 49.09 32.18 50.91 32.19 52.00 32.00
C 53.36 31.49 54.73 30.70 56.00 30.00
C 57.43 29.03 58.15 27.73 60.00 27.00
C 60.96 26.62 61.99 26.47 63.00 26.00
C 64.42 25.10 65.17 23.72 67.00 23.00
C 67.96 22.62 68.99 22.47 70.00 22.00
C 71.17 21.24 71.62 20.67 73.00 20.00
C 74.37 19.34 75.67 18.70 77.00 18.00
C 78.42 16.98 77.98 16.44 80.00 16.00
C 80.79 15.83 82.74 15.89 83.00 18.00
C 83.04 18.30 82.34 18.84 82.00 19.00
C 80.71 20.52 79.80 21.08 78.00 22.00
C 75.41 23.32 72.62 24.45 70.00 26.00
C 68.59 27.03 67.73 28.12 66.00 29.00
C 56.11 34.05 51.47 38.35 41.00 33.00
C 39.28 32.12 38.36 30.99 37.00 30.00
C 32.06 27.07 27.08 24.40 22.00 22.00
C 19.95 21.03 18.05 19.96 16.00 19.00
C 16.82 17.96 18.91 14.19 20.00 16.00
M 21.00 26.00 
C 22.42 26.68 22.82 27.11 24.00 28.00
C 29.40 30.94 34.46 34.34 40.00 37.00
C 41.42 37.68 41.82 38.11 43.00 39.00
C 51.96 43.88 55.43 40.07 64.00 35.00
C 65.43 33.95 66.13 32.74 68.00 32.00
C 68.96 31.62 69.99 31.47 71.00 31.00
C 72.36 30.13 73.35 28.84 75.00 28.00
C 77.57 26.69 80.34 25.39 83.00 24.00
C 83.83 23.56 87.79 19.87 88.00 24.00
C 88.10 26.04 86.43 26.09 85.00 27.00
C 83.58 28.12 82.76 29.10 81.00 30.00
C 76.04 32.53 70.91 35.09 66.00 38.00
C 64.57 39.05 63.87 40.26 62.00 41.00
C 61.04 41.38 60.01 41.53 59.00 42.00
C 57.58 42.90 56.83 44.28 55.00 45.00
C 54.12 45.35 52.96 45.67 52.00 46.00
C 49.04 47.75 50.90 47.71 48.00 46.00
C 47.05 45.67 45.91 45.36 45.00 45.00
C 43.13 44.26 42.38 43.01 41.00 42.00
C 36.06 39.08 30.98 36.54 26.00 34.00
C 24.37 33.17 23.29 31.83 22.00 31.00
C 20.95 30.51 20.03 30.41 19.00 30.00
C 17.19 29.28 16.35 27.86 15.00 27.00
C 14.35 26.70 12.39 26.31 12.00 26.00
C 10.54 24.82 12.11 22.19 14.00 22.00
C 15.22 21.88 19.67 25.36 21.00 26.00
M 11.00 30.00 
C 12.94 30.42 12.66 31.04 14.00 32.00
C 15.35 32.71 16.64 33.34 18.00 34.00
C 19.41 34.68 19.83 35.12 21.00 36.00
C 27.38 39.47 37.89 43.28 43.00 48.00
C 44.16 49.08 46.26 51.45 43.00 52.00
C 42.37 52.26 39.64 51.25 39.00 51.00
C 37.19 50.29 36.35 48.86 35.00 48.00
C 33.95 47.51 33.03 47.41 32.00 47.00
C 30.19 46.28 29.35 44.86 28.00 44.00
C 26.95 43.51 26.03 43.41 25.00 43.00
C 23.19 42.28 22.35 40.86 21.00 40.00
C 19.95 39.51 19.03 39.41 18.00 39.00
C 16.13 38.26 15.38 37.01 14.00 36.00
C 12.07 34.86 10.14 33.46 8.00 33.00
C 8.21 31.37 8.90 28.17 11.00 30.00
M 86.00 36.00 
C 84.59 37.03 83.73 38.12 82.00 39.00
C 74.69 42.73 67.48 47.37 60.00 51.00
C 57.54 52.19 52.92 51.43 57.00 48.00
C 59.25 46.11 64.22 44.65 67.00 43.00
C 68.42 41.96 69.22 40.84 71.00 40.00
C 76.11 37.59 81.05 34.93 86.00 32.00
C 86.97 31.29 88.33 28.72 90.00 29.00
C 91.21 29.21 91.95 31.96 92.00 33.00
C 89.63 33.03 88.28 35.50 86.00 36.00
M 10.00 39.00 
C 11.47 39.65 11.81 40.15 13.00 41.00
C 14.35 41.71 15.64 42.34 17.00 43.00
C 18.41 43.68 18.83 44.12 20.00 45.00
C 25.65 48.08 30.94 51.97 37.00 54.00
C 36.59 54.83 36.03 55.87 35.00 56.00
C 32.81 58.30 34.11 57.18 32.00 56.00
C 31.07 55.70 29.89 55.35 29.00 55.00
C 27.19 54.28 26.35 52.86 25.00 52.00
C 23.95 51.51 23.03 51.41 22.00 51.00
C 20.13 50.26 19.38 49.01 18.00 48.00
C 15.35 46.43 12.62 45.34 10.00 44.00
C 8.32 43.14 6.90 42.74 6.00 41.00
C 5.45 39.94 5.99 38.79 6.00 37.00
C 7.34 37.73 8.64 38.34 10.00 39.00
M 82.00 48.00 
C 80.57 49.05 79.87 50.26 78.00 51.00
C 77.04 51.38 76.01 51.53 75.00 52.00
C 73.58 52.90 72.83 54.28 71.00 55.00
C 70.13 55.34 68.95 55.69 68.00 56.00
C 66.48 56.85 66.42 58.85 65.00 56.00
C 62.71 53.99 66.44 52.88 68.00 52.00
C 69.29 51.00 69.46 50.74 71.00 50.00
C 78.98 46.18 86.18 41.07 94.00 37.00
C 96.24 43.55 85.93 44.29 82.00 48.00
M 27.00 58.00 
C 28.23 59.07 29.69 60.21 27.00 61.00
C 25.73 61.77 22.21 60.46 21.00 60.00
C 19.17 59.30 18.35 57.86 17.00 57.00
C 15.95 56.51 15.03 56.41 14.00 56.00
C 12.13 55.26 11.38 54.01 10.00 53.00
C 7.20 51.34 2.90 50.18 4.00 46.00
C 12.08 48.89 18.91 55.11 27.00 58.00
M 83.00 57.00 
C 81.57 58.05 80.89 59.28 79.00 60.00
C 77.45 60.59 74.78 61.52 73.00 61.00
C 70.26 60.20 71.80 59.04 73.00 58.00
C 77.64 52.31 90.49 50.99 96.00 46.00
C 96.32 52.66 87.16 53.30 83.00 57.00
M 83.00 71.00 
C 84.80 71.92 85.83 72.39 87.00 74.00
C 87.47 74.13 88.00 74.00 88.00 74.00
C 89.90 75.85 86.90 78.44 85.00 77.00
C 84.50 76.97 84.00 77.00 84.00 77.00
C 82.04 76.47 81.35 74.99 80.00 74.00
C 75.06 71.08 69.98 68.54 65.00 66.00
C 63.37 65.17 62.29 63.83 61.00 63.00
C 59.95 62.51 59.03 62.41 58.00 62.00
C 56.20 61.28 55.34 59.84 54.00 59.00
C 50.40 57.20 49.60 57.20 46.00 59.00
C 44.59 59.88 43.82 61.28 42.00 62.00
C 41.04 62.38 40.01 62.53 39.00 63.00
C 37.64 63.87 36.65 65.16 35.00 66.00
C 30.04 68.53 24.91 71.09 20.00 74.00
C 18.60 75.02 17.96 76.47 16.00 77.00
C 15.53 77.13 15.00 77.00 15.00 77.00
C 13.16 78.39 10.03 75.91 12.00 74.00
C 12.03 73.88 13.00 74.00 13.00 74.00
C 14.34 71.86 16.77 71.05 19.00 70.00
C 21.67 68.74 24.36 67.56 27.00 66.00
C 28.42 64.96 29.22 63.84 31.00 63.00
C 34.36 61.41 37.71 59.95 41.00 58.00
C 42.42 56.96 43.22 55.84 45.00 55.00
C 54.69 50.42 73.81 66.31 83.00 71.00
M 6.00 56.00 
C 8.59 55.61 19.39 64.21 19.00 65.00
C 17.89 67.28 17.46 66.47 16.00 66.00
C 15.53 65.98 13.47 65.19 13.00 65.00
C 11.11 64.25 10.38 63.08 9.00 62.00
C 7.11 60.80 5.04 60.74 5.00 58.00
C 4.30 56.04 5.80 54.12 6.00 56.00
M 95.00 59.00 
C 94.45 61.31 86.26 65.45 84.00 66.00
C 82.55 66.35 82.10 67.26 81.00 65.00
C 79.75 63.83 90.79 57.92 93.00 57.00
C 93.84 56.65 94.27 54.02 96.00 55.00
C 95.72 56.28 96.76 58.50 95.00 59.00
M 82.00 80.00 
C 86.23 83.88 79.78 83.82 77.00 82.00
C 75.95 81.52 75.02 81.41 74.00 81.00
C 72.13 80.26 71.38 79.01 70.00 78.00
C 67.35 76.43 64.62 75.34 62.00 74.00
C 60.37 73.17 59.29 71.83 58.00 71.00
C 56.95 70.51 56.03 70.41 55.00 70.00
C 53.20 69.29 52.34 67.84 51.00 67.00
C 50.52 66.91 49.48 66.91 49.00 67.00
C 47.65 67.85 46.64 69.16 45.00 70.00
C 42.41 71.32 39.62 72.45 37.00 74.00
C 35.57 75.05 34.87 76.26 33.00 77.00
C 32.04 77.38 31.01 77.53 30.00 78.00
C 28.58 78.90 27.83 80.28 26.00 81.00
C 25.04 81.38 24.01 81.53 23.00 82.00
C 21.68 82.86 22.15 84.06 20.00 84.00
C 19.50 83.99 19.00 84.00 19.00 84.00
C 16.02 82.93 16.27 81.59 18.00 80.00
C 23.27 75.16 33.58 71.80 40.00 68.00
C 41.43 66.95 42.13 65.74 44.00 65.00
C 44.96 64.62 45.99 64.47 47.00 64.00
C 48.35 63.12 47.85 62.02 50.00 62.00
C 52.83 61.65 57.00 66.85 60.08 67.92 C 63.16 68.99 67.92 72.15 70.75 74.25 C 73.58 76.36 79.53 77.73 82.00 80.00
M 11.00 68.00 
C 13.85 70.04 8.24 72.42 8.00 69.00
C 6.53 66.75 10.78 67.59 11.00 68.00
M 92.00 69.00 
C 91.76 72.41 86.11 70.06 89.00 68.00
C 89.31 67.44 93.42 66.83 92.00 69.00
M 75.00 86.00 
C 76.26 87.16 77.65 88.07 75.00 89.00
C 74.66 89.24 74.00 89.00 74.00 89.00
C 72.11 90.83 72.41 88.83 71.00 88.00
C 69.97 87.56 69.00 87.40 68.00 87.00
C 66.19 86.28 65.35 84.86 64.00 84.00
C 62.95 83.51 62.03 83.41 61.00 83.00
C 59.19 82.28 58.35 80.86 57.00 80.00
C 55.94 79.51 55.04 79.40 54.00 79.00
C 52.29 78.34 50.94 76.97 49.00 77.00
C 46.91 77.47 44.89 78.88 43.00 80.00
C 41.57 81.05 40.87 82.26 39.00 83.00
C 38.04 83.38 37.01 83.53 36.00 84.00
C 34.58 84.90 33.83 86.28 32.00 87.00
C 31.02 87.39 29.99 87.42 29.00 88.00
C 26.41 89.52 20.95 87.80 25.00 86.00
C 25.20 85.75 26.00 86.00 26.00 86.00
C 27.04 84.27 27.40 84.77 29.00 84.00
C 32.13 82.50 35.03 80.76 38.00 79.00
C 39.41 77.97 40.27 76.88 42.00 76.00
C 48.10 72.89 52.84 71.77 58.23 76.77 C 63.62 81.77 69.97 81.37 75.00 86.00
M 53.00 83.00 
C 54.73 83.61 54.70 84.02 56.00 85.00
C 58.94 86.60 63.52 88.13 66.00 90.00
C 67.13 90.85 69.00 91.83 67.00 93.00
C 66.87 93.22 66.00 93.00 66.00 93.00
C 64.18 94.46 62.21 94.29 61.00 92.00
C 60.63 91.78 60.00 92.00 60.00 92.00
C 58.04 91.47 57.35 89.99 56.00 89.00
C 48.13 84.34 46.40 88.86 39.00 92.00
C 36.74 93.30 37.72 94.25 35.00 93.00
C 34.50 93.00 33.39 93.21 33.00 93.00
C 30.09 91.44 34.29 90.46 35.00 90.00
C 39.23 86.61 48.01 81.25 53.00 83.00
M 56.00 94.00 
C 57.74 94.40 58.38 96.21 56.00 96.00
C 55.76 96.26 53.39 96.00 53.00 96.00
C 51.01 96.00 48.98 96.12 47.00 96.00
C 45.34 95.90 43.66 96.08 42.00 96.00
C 42.41 95.17 42.97 94.13 44.00 94.00
C 45.14 92.97 48.80 93.54 49.00 91.00
C 51.68 91.05 53.14 94.25 56.00 94.00 Z"/>
</g>
<g fill="#FF6E66" fill-opacity="0.53" stroke="None">
<path d="
M 60.00 1.00 
C 59.75 0.75 60.00 0.00 60.00 0.00
L 52.00 0.00
C 53.70 1.78 57.48 1.00 60.00 1.00 Z"/>
</g>
<g fill="#000000" fill-opacity="0.00" stroke="None">
<path d="
M 60.00 1.00 
C 60.00 1.00 60.51 1.06 61.00 1.00
C 62.75 0.79 62.93 1.66 64.00 2.00
C 67.37 2.55 69.96 3.44 73.00 5.00
C 74.64 5.84 75.69 7.15 77.00 8.00
C 78.37 8.72 79.60 9.00 81.00 10.00
C 84.06 12.18 86.73 15.12 89.00 18.00
C 90.28 19.62 91.10 21.33 92.00 23.00
C 94.02 26.01 95.67 28.40 97.00 32.00
C 98.20 35.25 98.69 37.46 99.00 41.00
C 99.00 41.01 100.00 41.00 100.00 41.00
L 100.00 0.00
L 60.00 0.00
C 60.00 0.00 59.75 0.75 60.00 1.00 Z"/>
</g>
<g fill="#F7A0A0" fill-opacity="0.33" stroke="None">
<path d="
M 64.00 2.00 
C 62.93 1.66 62.75 0.79 61.00 1.00
C 62.19 2.11 62.31 1.72 64.00 2.00 Z"/>
</g>
<g fill="#FFA3A4" fill-opacity="0.28" stroke="None">
<path d="
M 44.00 6.00 
C 44.54 5.60 46.44 4.13 47.00 4.00
C 45.33 4.00 43.67 4.00 42.00 4.00
C 42.11 5.05 43.19 5.57 44.00 6.00 Z"/>
</g>
<g fill="#000000" fill-opacity="0.00" stroke="None">
<path d="
M 44.00 6.00 
C 44.72 6.38 46.15 6.67 47.00 7.00
C 48.47 7.58 49.27 8.12 51.00 8.00
C 52.69 7.55 54.33 6.51 56.00 6.00
C 56.14 5.96 56.00 5.00 56.00 5.00
C 55.31 4.78 53.38 4.08 53.00 4.00
C 51.01 4.00 48.98 3.88 47.00 4.00
C 46.44 4.13 44.54 5.60 44.00 6.00 Z"/>
</g>
<g fill="#FFD6CC" fill-opacity="0.08" stroke="None">
<path d="
M 56.00 5.00 
C 56.00 4.50 56.00 4.00 56.00 4.00
C 55.76 3.74 53.39 4.00 53.00 4.00
C 53.38 4.08 55.31 4.78 56.00 5.00 Z"/>
</g>
<g fill="#FF7673" fill-opacity="0.48" stroke="None">
<path d="
M 56.00 5.00 
C 56.00 5.00 56.14 5.96 56.00 6.00
C 57.64 5.62 58.39 3.79 56.00 4.00
C 56.00 4.00 56.00 4.50 56.00 5.00 Z"/>
</g>
<g fill="#FEA3A0" fill-opacity="0.31" stroke="None">
<path d="
M 23.00 8.00 
C 24.63 7.15 25.65 5.86 27.00 5.00
C 25.34 5.85 24.37 7.11 23.00 8.00 Z"/>
</g>
<g fill="#FDACAC" fill-opacity="0.29" stroke="None">
<path d="
M 77.00 8.00 
C 75.69 7.15 74.64 5.84 73.00 5.00
C 74.29 5.82 75.39 7.16 77.00 8.00 Z"/>
</g>
<g fill="#000000" fill-opacity="0.00" stroke="None">
<path d="
M 33.00 7.00 
C 33.02 8.11 34.98 10.43 36.00 11.00
C 37.04 11.40 37.94 11.51 39.00 12.00
C 40.61 12.75 41.76 14.31 43.00 15.00
C 44.02 15.40 44.95 15.52 46.00 16.00
C 47.57 16.71 49.18 18.12 51.00 18.00
C 52.65 17.53 55.48 15.78 57.00 15.00
C 58.39 14.12 59.28 12.80 61.00 12.00
C 62.01 11.53 63.04 11.38 64.00 11.00
C 64.80 10.55 66.41 8.70 67.00 8.00
C 66.81 7.59 67.00 7.00 67.00 7.00
C 66.84 6.77 65.50 7.00 65.00 7.00
C 63.26 7.01 62.53 7.40 61.00 8.00
C 60.01 8.39 58.92 8.64 58.00 9.00
C 56.71 9.71 55.57 11.21 54.00 12.00
C 50.39 13.80 49.60 13.79 46.00 12.00
C 44.81 11.41 43.93 10.60 43.00 10.00
C 40.57 8.84 35.59 4.68 33.00 7.00 Z"/>
</g>
<g fill="#FBC2AF" fill-opacity="0.18" stroke="None">
<path d="
M 61.00 8.00 
C 62.53 7.40 63.26 7.01 65.00 7.00
C 62.29 5.76 63.26 6.68 61.00 8.00 Z"/>
</g>
<g fill="#FD9597" fill-opacity="0.28" stroke="None">
<path d="
M 36.00 11.00 
C 34.98 10.43 33.02 8.11 33.00 7.00
C 30.84 8.94 34.21 10.30 36.00 11.00 Z"/>
</g>
<g fill="#FEB1A4" fill-opacity="0.20" stroke="None">
<path d="
M 51.00 8.00 
C 49.27 8.12 48.47 7.58 47.00 7.00
C 49.39 8.40 48.19 8.74 51.00 8.00 Z"/>
</g>
<g fill="#FF5C59" fill-opacity="0.62" stroke="None">
<path d="
M 67.00 8.00 
C 67.12 8.26 67.80 8.98 68.00 9.00
C 69.35 9.14 68.99 6.57 67.00 7.00
C 67.00 7.00 66.81 7.59 67.00 8.00 Z"/>
</g>
<g fill="#FCADAC" fill-opacity="0.27" stroke="None">
<path d="
M 64.00 11.00 
C 64.71 10.72 67.73 9.67 68.00 9.00
C 67.80 8.98 67.12 8.26 67.00 8.00
C 66.41 8.70 64.80 10.55 64.00 11.00 Z"/>
</g>
<g fill="#FEAAA4" fill-opacity="0.27" stroke="None">
<path d="
M 54.00 12.00 
C 55.57 11.21 56.71 9.71 58.00 9.00
C 56.18 9.72 55.41 11.12 54.00 12.00 Z"/>
</g>
<g fill="#FFC0C0" fill-opacity="0.13" stroke="None">
<path d="
M 10.00 19.00 
C 12.37 16.28 16.19 12.36 19.00 10.00
C 15.69 12.35 12.45 15.70 10.00 19.00 Z"/>
</g>
<g fill="#FFC1BF" fill-opacity="0.21" stroke="None">
<path d="
M 46.00 12.00 
C 44.88 11.22 44.35 10.64 43.00 10.00
C 43.93 10.60 44.81 11.41 46.00 12.00 Z"/>
</g>
<g fill="#FFBBB3" fill-opacity="0.21" stroke="None">
<path d="
M 69.00 13.00 
C 70.68 12.12 72.10 11.25 74.00 11.00
C 71.60 9.25 70.93 11.67 69.00 13.00 Z"/>
</g>
<g fill="#FFCBCB" fill-opacity="0.12" stroke="None">
<path d="
M 89.00 18.00 
C 86.73 15.12 84.06 12.18 81.00 10.00
C 83.48 12.08 86.74 15.55 89.00 18.00 Z"/>
</g>
<g fill="#FF999C" fill-opacity="0.30" stroke="None">
<path d="
M 25.00 14.00 
C 24.19 13.43 24.14 11.54 25.00 11.00
C 22.90 11.61 23.04 13.31 25.00 14.00 Z"/>
</g>
<g fill="#000000" fill-opacity="0.00" stroke="None">
<path d="
M 25.00 14.00 
C 25.00 14.00 25.53 13.87 26.00 14.00
C 27.93 14.52 28.65 16.14 30.00 17.00
C 34.98 19.54 40.06 22.08 45.00 25.00
C 46.46 25.87 47.78 27.24 49.00 28.00
C 49.48 28.09 50.52 28.09 51.00 28.00
C 52.29 27.20 53.52 25.88 55.00 25.00
C 59.89 22.10 71.83 18.22 75.00 14.00
C 75.59 13.22 76.04 11.73 75.00 11.00
C 75.00 11.00 74.49 10.93 74.00 11.00
C 72.10 11.25 70.68 12.12 69.00 13.00
C 62.29 16.57 55.88 21.04 49.00 24.00
C 46.52 21.39 40.45 18.09 37.25 16.75 C 34.04 15.42 28.42 8.85 25.00 11.00
C 24.14 11.54 24.19 13.43 25.00 14.00 Z"/>
</g>
<g fill="#FF8F98" fill-opacity="0.29" stroke="None">
<path d="
M 75.00 14.00 
C 76.23 12.87 77.71 11.94 75.00 11.00
C 76.04 11.73 75.59 13.22 75.00 14.00 Z"/>
</g>
<g fill="#FEB1B0" fill-opacity="0.27" stroke="None">
<path d="
M 43.00 15.00 
C 41.76 14.31 40.61 12.75 39.00 12.00
C 40.35 12.86 41.19 14.28 43.00 15.00 Z"/>
</g>
<g fill="#FBB2B2" fill-opacity="0.27" stroke="None">
<path d="
M 57.00 15.00 
C 58.65 14.16 59.64 12.87 61.00 12.00
C 59.28 12.80 58.39 14.12 57.00 15.00 Z"/>
</g>
<g fill="#FEB8B2" fill-opacity="0.25" stroke="None">
<path d="
M 30.00 17.00 
C 28.65 16.14 27.93 14.52 26.00 14.00
C 27.17 15.61 28.20 16.08 30.00 17.00 Z"/>
</g>
<g fill="#FC8F8A" fill-opacity="0.40" stroke="None">
<path d="
M 22.00 22.00 
C 20.53 21.13 19.43 18.41 17.00 19.00
C 17.67 17.80 18.64 16.42 20.00 16.00
C 18.91 14.19 16.82 17.96 16.00 19.00
C 18.05 19.96 19.95 21.03 22.00 22.00 Z"/>
</g>
<g fill="#FF8E8E" fill-opacity="0.37" stroke="None">
<path d="
M 80.00 16.00 
C 80.27 16.00 83.00 17.99 83.00 18.00
C 82.74 15.89 80.79 15.83 80.00 16.00 Z"/>
</g>
<g fill="#000000" fill-opacity="0.00" stroke="None">
<path d="
M 22.00 22.00 
C 27.08 24.40 32.06 27.07 37.00 30.00
C 38.48 30.87 39.77 32.22 41.00 33.00
C 51.47 38.35 56.11 34.05 66.00 29.00
C 67.29 28.18 68.51 26.89 70.00 26.00
C 72.62 24.45 75.41 23.32 78.00 22.00
C 79.38 21.12 80.29 19.81 82.00 19.00
C 82.34 18.84 83.04 18.30 83.00 18.00
C 83.00 17.99 80.27 16.00 80.00 16.00
C 79.85 16.00 77.48 17.75 77.00 18.00
C 75.67 18.70 74.37 19.34 73.00 20.00
C 72.08 20.59 71.16 21.46 70.00 22.00
C 68.99 22.47 67.96 22.62 67.00 23.00
C 65.68 23.73 64.64 25.24 63.00 26.00
C 61.99 26.47 60.96 26.62 60.00 27.00
C 58.76 27.69 57.48 29.19 56.00 30.00
C 54.73 30.70 53.36 31.49 52.00 32.00
C 49.91 32.78 50.03 32.70 48.00 32.00
C 40.84 30.78 31.29 22.73 25.00 19.00
C 23.24 17.96 22.20 17.65 21.00 16.00
C 21.00 16.00 20.36 16.23 20.00 16.00
C 18.64 16.42 17.67 17.80 17.00 19.00
C 19.43 18.41 20.53 21.13 22.00 22.00 Z"/>
</g>
<g fill="#F99997" fill-opacity="0.33" stroke="None">
<path d="
M 25.00 19.00 
C 23.65 18.01 22.96 16.53 21.00 16.00
C 22.20 17.65 23.24 17.96 25.00 19.00 Z"/>
</g>
<g fill="#FEACAD" fill-opacity="0.30" stroke="None">
<path d="
M 51.00 18.00 
C 49.18 18.12 47.57 16.71 46.00 16.00
C 48.40 17.56 48.22 18.80 51.00 18.00 Z"/>
</g>
<g fill="#FFC5CA" fill-opacity="0.18" stroke="None">
<path d="
M 77.00 18.00 
C 77.48 17.75 79.85 16.00 80.00 16.00
C 77.98 16.44 78.42 16.98 77.00 18.00 Z"/>
</g>
<g fill="#FEB0AE" fill-opacity="0.29" stroke="None">
<path d="
M 78.00 22.00 
C 79.80 21.08 80.71 20.52 82.00 19.00
C 80.29 19.81 79.38 21.12 78.00 22.00 Z"/>
</g>
<g fill="#FFC1C4" fill-opacity="0.20" stroke="None">
<path d="
M 70.00 22.00 
C 71.16 21.46 72.08 20.59 73.00 20.00
C 71.62 20.67 71.17 21.24 70.00 22.00 Z"/>
</g>
<g fill="#FF9898" fill-opacity="0.31" stroke="None">
<path d="
M 12.00 26.00 
C 11.45 24.18 13.75 23.53 14.00 22.00
C 12.11 22.19 10.54 24.82 12.00 26.00 Z"/>
</g>
<g fill="#000000" fill-opacity="0.00" stroke="None">
<path d="
M 12.00 26.00 
C 12.39 26.31 14.35 26.70 15.00 27.00
C 16.61 27.75 17.76 29.31 19.00 30.00
C 20.03 30.41 20.95 30.51 22.00 31.00
C 23.71 31.79 24.68 33.16 26.00 34.00
C 30.98 36.54 36.06 39.08 41.00 42.00
C 42.36 42.80 43.89 44.38 45.00 45.00
C 45.91 45.36 47.05 45.67 48.00 46.00
C 50.07 46.71 49.91 46.72 52.00 46.00
C 52.96 45.67 54.12 45.35 55.00 45.00
C 56.32 44.27 57.36 42.76 59.00 42.00
C 60.01 41.53 61.04 41.38 62.00 41.00
C 63.19 40.34 64.61 38.82 66.00 38.00
C 70.91 35.09 76.04 32.53 81.00 30.00
C 82.25 29.21 83.60 27.90 85.00 27.00
C 86.43 26.09 88.10 26.04 88.00 24.00
C 87.36 21.95 84.00 23.66 83.00 24.00
C 80.34 25.39 77.57 26.69 75.00 28.00
C 73.61 28.88 72.72 30.20 71.00 31.00
C 69.99 31.47 68.96 31.62 68.00 32.00
C 66.81 32.66 65.39 34.18 64.00 35.00
C 55.43 40.07 51.96 43.88 43.00 39.00
C 41.85 38.38 40.92 37.59 40.00 37.00
C 34.46 34.34 29.40 30.94 24.00 28.00
C 22.85 27.38 21.92 26.59 21.00 26.00
C 19.67 25.36 15.22 21.88 14.00 22.00
C 13.75 23.53 11.45 24.18 12.00 26.00 Z"/>
</g>
<g fill="#FDB4B3" fill-opacity="0.17" stroke="None">
<path d="
M 83.00 24.00 
C 84.00 23.66 87.36 21.95 88.00 24.00
C 87.79 19.87 83.83 23.56 83.00 24.00 Z"/>
</g>
<g fill="#FBA7A6" fill-opacity="0.25" stroke="None">
<path d="
M 63.00 26.00 
C 64.64 25.24 65.68 23.73 67.00 23.00
C 65.17 23.72 64.42 25.10 63.00 26.00 Z"/>
</g>
<g fill="#FFAEAC" fill-opacity="0.27" stroke="None">
<path d="
M 97.00 32.00 
C 95.67 28.40 94.02 26.01 92.00 23.00
C 93.60 25.97 95.57 29.17 97.00 32.00 Z"/>
</g>
<g fill="#FEA197" fill-opacity="0.33" stroke="None">
<path d="
M 49.00 28.00 
C 47.78 27.24 46.46 25.87 45.00 25.00
C 46.30 25.95 47.03 27.61 49.00 28.00 Z"/>
</g>
<g fill="#FC9F98" fill-opacity="0.33" stroke="None">
<path d="
M 51.00 28.00 
C 52.97 27.61 53.65 25.99 55.00 25.00
C 53.52 25.88 52.29 27.20 51.00 28.00 Z"/>
</g>
<g fill="#FDB5B4" fill-opacity="0.24" stroke="None">
<path d="
M 24.00 28.00 
C 22.82 27.11 22.42 26.68 21.00 26.00
C 21.92 26.59 22.85 27.38 24.00 28.00 Z"/>
</g>
<g fill="#F9999A" fill-opacity="0.32" stroke="None">
<path d="
M 66.00 29.00 
C 67.73 28.12 68.59 27.03 70.00 26.00
C 68.51 26.89 67.29 28.18 66.00 29.00 Z"/>
</g>
<g fill="#FDA8A5" fill-opacity="0.29" stroke="None">
<path d="
M 19.00 30.00 
C 17.76 29.31 16.61 27.75 15.00 27.00
C 16.35 27.86 17.19 29.28 19.00 30.00 Z"/>
</g>
<g fill="#FBABA5" fill-opacity="0.27" stroke="None">
<path d="
M 56.00 30.00 
C 57.48 29.19 58.76 27.69 60.00 27.00
C 58.15 27.73 57.43 29.03 56.00 30.00 Z"/>
</g>
<g fill="#FEA19A" fill-opacity="0.29" stroke="None">
<path d="
M 81.00 30.00 
C 82.76 29.10 83.58 28.12 85.00 27.00
C 83.60 27.90 82.25 29.21 81.00 30.00 Z"/>
</g>
<g fill="#FFBFC1" fill-opacity="0.21" stroke="None">
<path d="
M 71.00 31.00 
C 72.72 30.20 73.61 28.88 75.00 28.00
C 73.35 28.84 72.36 30.13 71.00 31.00 Z"/>
</g>
<g fill="#000000" fill-opacity="0.00" stroke="None">
<path d="
M 14.00 36.00 
C 15.36 36.80 16.89 38.38 18.00 39.00
C 19.03 39.41 19.95 39.51 21.00 40.00
C 22.61 40.75 23.76 42.31 25.00 43.00
C 26.03 43.41 26.95 43.51 28.00 44.00
C 29.61 44.75 30.76 46.31 32.00 47.00
C 33.03 47.41 33.95 47.51 35.00 48.00
C 36.55 48.72 37.82 50.40 39.00 51.00
C 39.64 51.25 42.37 52.26 43.00 52.00
C 44.52 51.37 43.64 48.85 43.00 48.00
C 37.89 43.28 27.38 39.47 21.00 36.00
C 19.85 35.38 18.92 34.59 18.00 34.00
C 16.64 33.34 15.35 32.71 14.00 32.00
C 13.09 31.53 11.66 30.25 11.00 30.00
C 8.90 28.17 8.21 31.37 8.00 33.00
C 10.14 33.46 12.07 34.86 14.00 36.00 Z"/>
</g>
<g fill="#F9A4A1" fill-opacity="0.28" stroke="None">
<path d="
M 86.00 32.00 
C 87.42 31.16 89.51 30.84 90.00 29.00
C 88.33 28.72 86.97 31.29 86.00 32.00 Z"/>
</g>
<g fill="#000000" fill-opacity="0.00" stroke="None">
<path d="
M 86.00 32.00 
C 81.05 34.93 76.11 37.59 71.00 40.00
C 69.76 40.73 68.44 42.15 67.00 43.00
C 64.22 44.65 59.25 46.11 57.00 48.00
C 54.67 51.02 57.88 51.50 60.00 51.00
C 67.48 47.37 74.69 42.73 82.00 39.00
C 83.29 38.18 84.51 36.89 86.00 36.00
C 88.28 35.50 89.63 33.03 92.00 33.00
C 91.95 31.96 91.21 29.21 90.00 29.00
C 89.51 30.84 87.42 31.16 86.00 32.00 Z"/>
</g>
<g fill="#F9BABB" fill-opacity="0.23" stroke="None">
<path d="
M 14.00 32.00 
C 12.66 31.04 12.94 30.42 11.00 30.00
C 11.66 30.25 13.09 31.53 14.00 32.00 Z"/>
</g>
<g fill="#FDB1B4" fill-opacity="0.26" stroke="None">
<path d="
M 41.00 33.00 
C 39.77 32.22 38.48 30.87 37.00 30.00
C 38.36 30.99 39.28 32.12 41.00 33.00 Z"/>
</g>
<g fill="#FFB6B1" fill-opacity="0.25" stroke="None">
<path d="
M 26.00 34.00 
C 24.68 33.16 23.71 31.79 22.00 31.00
C 23.29 31.83 24.37 33.17 26.00 34.00 Z"/>
</g>
<g fill="#EFB5B6" fill-opacity="0.30" stroke="None">
<path d="
M 52.00 32.00 
C 50.91 32.19 49.09 32.18 48.00 32.00
C 50.03 32.70 49.91 32.78 52.00 32.00 Z"/>
</g>
<g fill="#FFAFAD" fill-opacity="0.25" stroke="None">
<path d="
M 64.00 35.00 
C 65.39 34.18 66.81 32.66 68.00 32.00
C 66.13 32.74 65.43 33.95 64.00 35.00 Z"/>
</g>
<g fill="#F9B7B3" fill-opacity="0.25" stroke="None">
<path d="
M 21.00 36.00 
C 19.83 35.12 19.41 34.68 18.00 34.00
C 18.92 34.59 19.85 35.38 21.00 36.00 Z"/>
</g>
<g fill="#FAA29F" fill-opacity="0.29" stroke="None">
<path d="
M 18.00 39.00 
C 16.89 38.38 15.36 36.80 14.00 36.00
C 15.38 37.01 16.13 38.26 18.00 39.00 Z"/>
</g>
<g fill="#FA9998" fill-opacity="0.31" stroke="None">
<path d="
M 82.00 39.00 
C 83.73 38.12 84.59 37.03 86.00 36.00
C 84.51 36.89 83.29 38.18 82.00 39.00 Z"/>
</g>
<g fill="#000000" fill-opacity="0.00" stroke="None">
<path d="
M 6.00 41.00 
C 6.32 41.46 9.51 43.69 10.00 44.00
C 12.62 45.34 15.35 46.43 18.00 48.00
C 19.36 48.80 20.89 50.38 22.00 51.00
C 23.03 51.41 23.95 51.51 25.00 52.00
C 26.61 52.75 27.76 54.31 29.00 55.00
C 29.89 55.35 31.07 55.70 32.00 56.00
C 33.51 56.49 33.43 56.83 35.00 56.00
C 36.03 55.87 36.59 54.83 37.00 54.00
C 30.94 51.97 25.65 48.08 20.00 45.00
C 18.85 44.38 17.92 43.59 17.00 43.00
C 15.64 42.34 14.35 41.71 13.00 41.00
C 11.86 40.40 10.91 39.55 10.00 39.00
C 8.64 38.34 7.34 37.73 6.00 37.00
C 5.99 38.79 5.45 39.94 6.00 41.00 Z"/>
</g>
<g fill="#FFC1B6" fill-opacity="0.22" stroke="None">
<path d="
M 43.00 39.00 
C 41.82 38.11 41.42 37.68 40.00 37.00
C 40.92 37.59 41.85 38.38 43.00 39.00 Z"/>
</g>
<g fill="#000000" fill-opacity="0.00" stroke="None">
<path d="
M 71.00 50.00 
C 70.11 50.57 69.06 51.40 68.00 52.00
C 66.44 52.88 62.71 53.99 65.00 56.00
C 66.25 57.09 66.68 56.43 68.00 56.00
C 68.95 55.69 70.13 55.34 71.00 55.00
C 72.32 54.27 73.36 52.76 75.00 52.00
C 76.01 51.53 77.04 51.38 78.00 51.00
C 79.19 50.34 80.61 48.82 82.00 48.00
C 85.93 44.29 96.24 43.55 94.00 37.00
C 86.18 41.07 78.98 46.18 71.00 50.00 Z"/>
</g>
<g fill="#F99FA0" fill-opacity="0.31" stroke="None">
<path d="
M 62.00 41.00 
C 63.87 40.26 64.57 39.05 66.00 38.00
C 64.61 38.82 63.19 40.34 62.00 41.00 Z"/>
</g>
<g fill="#FFB9B5" fill-opacity="0.23" stroke="None">
<path d="
M 13.00 41.00 
C 11.81 40.15 11.47 39.65 10.00 39.00
C 10.91 39.55 11.86 40.40 13.00 41.00 Z"/>
</g>
<g fill="#FF8981" fill-opacity="0.35" stroke="None">
<path d="
M 0.00 43.00 
C 1.49 42.74 0.86 41.00 1.00 40.00
C 1.00 40.00 0.50 40.00 0.00 40.00
L 0.00 43.00 Z"/>
</g>
<g fill="#FDB5B3" fill-opacity="0.27" stroke="None">
<path d="
M 25.00 43.00 
C 23.76 42.31 22.61 40.75 21.00 40.00
C 22.35 40.86 23.19 42.28 25.00 43.00 Z"/>
</g>
<g fill="#FFACAA" fill-opacity="0.25" stroke="None">
<path d="
M 67.00 43.00 
C 68.44 42.15 69.76 40.73 71.00 40.00
C 69.22 40.84 68.42 41.96 67.00 43.00 Z"/>
</g>
<g fill="#FFA7A3" fill-opacity="0.25" stroke="None">
<path d="
M 10.00 44.00 
C 9.51 43.69 6.32 41.46 6.00 41.00
C 6.90 42.74 8.32 43.14 10.00 44.00 Z"/>
</g>
<g fill="#FF7B85" fill-opacity="0.42" stroke="None">
<path d="
M 100.00 46.00 
L 100.00 41.00
C 100.00 41.00 99.00 41.01 99.00 41.00
C 99.14 42.57 98.39 45.16 100.00 46.00 Z"/>
</g>
<g fill="#F9A8AA" fill-opacity="0.28" stroke="None">
<path d="
M 45.00 45.00 
C 43.89 44.38 42.36 42.80 41.00 42.00
C 42.38 43.01 43.13 44.26 45.00 45.00 Z"/>
</g>
<g fill="#FDACAA" fill-opacity="0.27" stroke="None">
<path d="
M 55.00 45.00 
C 56.83 44.28 57.58 42.90 59.00 42.00
C 57.36 42.76 56.32 44.27 55.00 45.00 Z"/>
</g>
<g fill="#FFB8B7" fill-opacity="0.25" stroke="None">
<path d="
M 20.00 45.00 
C 18.83 44.12 18.41 43.68 17.00 43.00
C 17.92 43.59 18.85 44.38 20.00 45.00 Z"/>
</g>
<g fill="#FFB3B1" fill-opacity="0.24" stroke="None">
<path d="
M 32.00 47.00 
C 30.76 46.31 29.61 44.75 28.00 44.00
C 29.35 44.86 30.19 46.28 32.00 47.00 Z"/>
</g>
<g fill="#000000" fill-opacity="0.00" stroke="None">
<path d="
M 10.00 53.00 
C 11.36 53.80 12.89 55.38 14.00 56.00
C 15.03 56.41 15.95 56.51 17.00 57.00
C 18.50 57.70 19.87 59.46 21.00 60.00
C 22.21 60.46 25.73 61.77 27.00 61.00
C 28.06 60.35 27.62 58.76 27.00 58.00
C 18.91 55.11 12.08 48.89 4.00 46.00
C 2.90 50.18 7.20 51.34 10.00 53.00 Z"/>
</g>
<g fill="#FFA2A0" fill-opacity="0.29" stroke="None">
<path d="
M 52.00 46.00 
C 49.91 46.72 50.07 46.71 48.00 46.00
C 50.90 47.71 49.04 47.75 52.00 46.00 Z"/>
</g>
<g fill="#000000" fill-opacity="0.00" stroke="None">
<path d="
M 73.00 58.00 
C 72.42 58.72 71.95 60.36 73.00 61.00
C 74.78 61.52 77.45 60.59 79.00 60.00
C 80.07 59.48 81.73 57.75 83.00 57.00
C 87.16 53.30 96.32 52.66 96.00 46.00
C 90.49 50.99 77.64 52.31 73.00 58.00 Z"/>
</g>
<g fill="#FD9F9D" fill-opacity="0.31" stroke="None">
<path d="
M 22.00 51.00 
C 20.89 50.38 19.36 48.80 18.00 48.00
C 19.38 49.01 20.13 50.26 22.00 51.00 Z"/>
</g>
<g fill="#FFB9B7" fill-opacity="0.21" stroke="None">
<path d="
M 39.00 51.00 
C 37.82 50.40 36.55 48.72 35.00 48.00
C 36.35 48.86 37.19 50.29 39.00 51.00 Z"/>
</g>
<g fill="#FCA4A4" fill-opacity="0.23" stroke="None">
<path d="
M 43.00 52.00 
C 46.26 51.45 44.16 49.08 43.00 48.00
C 43.64 48.85 44.52 51.37 43.00 52.00 Z"/>
</g>
<g fill="#FFADA3" fill-opacity="0.25" stroke="None">
<path d="
M 60.00 51.00 
C 57.88 51.50 54.67 51.02 57.00 48.00
C 52.92 51.43 57.54 52.19 60.00 51.00 Z"/>
</g>
<g fill="#FD9E99" fill-opacity="0.32" stroke="None">
<path d="
M 78.00 51.00 
C 79.87 50.26 80.57 49.05 82.00 48.00
C 80.61 48.82 79.19 50.34 78.00 51.00 Z"/>
</g>
<g fill="#FEC2B8" fill-opacity="0.20" stroke="None">
<path d="
M 68.00 52.00 
C 69.06 51.40 70.11 50.57 71.00 50.00
C 69.46 50.74 69.29 51.00 68.00 52.00 Z"/>
</g>
<g fill="#FBA4A7" fill-opacity="0.29" stroke="None">
<path d="
M 29.00 55.00 
C 27.76 54.31 26.61 52.75 25.00 52.00
C 26.35 52.86 27.19 54.28 29.00 55.00 Z"/>
</g>
<g fill="#FDABAD" fill-opacity="0.28" stroke="None">
<path d="
M 71.00 55.00 
C 72.83 54.28 73.58 52.90 75.00 52.00
C 73.36 52.76 72.32 54.27 71.00 55.00 Z"/>
</g>
<g fill="#FF9E9D" fill-opacity="0.30" stroke="None">
<path d="
M 14.00 56.00 
C 12.89 55.38 11.36 53.80 10.00 53.00
C 11.38 54.01 12.13 55.26 14.00 56.00 Z"/>
</g>
<g fill="#000000" fill-opacity="0.00" stroke="None">
<path d="
M 45.00 55.00 
C 43.76 55.73 42.44 57.15 41.00 58.00
C 37.71 59.95 34.36 61.41 31.00 63.00
C 29.76 63.73 28.44 65.15 27.00 66.00
C 24.36 67.56 21.67 68.74 19.00 70.00
C 17.00 71.19 15.46 73.03 13.00 74.00
C 13.00 74.00 12.03 73.88 12.00 74.00
C 11.53 75.84 13.43 77.08 15.00 77.00
C 15.00 77.00 15.53 77.13 16.00 77.00
C 17.21 75.34 18.28 75.02 20.00 74.00
C 24.91 71.09 30.04 68.53 35.00 66.00
C 36.39 65.12 37.28 63.80 39.00 63.00
C 40.01 62.53 41.04 62.38 42.00 62.00
C 43.29 61.29 44.43 59.79 46.00 59.00
C 49.60 57.20 50.40 57.20 54.00 59.00
C 55.54 59.77 56.79 61.33 58.00 62.00
C 59.03 62.41 59.95 62.51 61.00 63.00
C 62.71 63.79 63.68 65.16 65.00 66.00
C 69.98 68.54 75.06 71.08 80.00 74.00
C 81.76 75.04 82.80 75.35 84.00 77.00
C 84.00 77.00 84.50 76.97 85.00 77.00
C 86.55 77.08 88.48 75.85 88.00 74.00
C 88.00 74.00 87.47 74.13 87.00 74.00
C 85.07 73.48 84.35 71.86 83.00 71.00
C 73.81 66.31 54.69 50.42 45.00 55.00 Z"/>
</g>
<g fill="#FF716C" fill-opacity="0.47" stroke="None">
<path d="
M 0.00 59.00 
C 0.50 59.00 1.00 59.00 1.00 59.00
C 0.88 57.74 1.49 55.54 0.00 55.00
L 0.00 59.00 Z"/>
</g>
<g fill="#FD9596" fill-opacity="0.31" stroke="None">
<path d="
M 5.00 58.00 
C 4.99 57.55 5.97 55.76 6.00 56.00
C 5.80 54.12 4.30 56.04 5.00 58.00 Z"/>
</g>
<g fill="#FAAFAF" fill-opacity="0.26" stroke="None">
<path d="
M 41.00 58.00 
C 42.44 57.15 43.76 55.73 45.00 55.00
C 43.22 55.84 42.42 56.96 41.00 58.00 Z"/>
</g>
<g fill="#FA989B" fill-opacity="0.33" stroke="None">
<path d="
M 93.00 57.00 
C 94.51 56.80 95.69 56.11 95.00 59.00
C 96.76 58.50 95.72 56.28 96.00 55.00
C 94.27 54.02 93.84 56.65 93.00 57.00 Z"/>
</g>
<g fill="#FF7378" fill-opacity="0.45" stroke="None">
<path d="
M 99.00 59.00 
C 99.00 58.99 100.00 59.00 100.00 59.00
L 100.00 55.00
C 98.35 55.51 99.12 57.71 99.00 59.00 Z"/>
</g>
<g fill="#000000" fill-opacity="0.00" stroke="None">
<path d="
M 5.00 58.00 
C 5.04 60.74 7.11 60.80 9.00 62.00
C 10.27 62.81 11.94 64.41 13.00 65.00
C 13.47 65.19 15.53 65.98 16.00 66.00
C 16.85 66.04 18.36 65.59 19.00 65.00
C 19.39 64.21 8.59 55.61 6.00 56.00
C 5.97 55.76 4.99 57.55 5.00 58.00 Z"/>
</g>
<g fill="#FA918C" fill-opacity="0.37" stroke="None">
<path d="
M 35.00 56.00 
C 33.43 56.83 33.51 56.49 32.00 56.00
C 34.11 57.18 32.81 58.30 35.00 56.00 Z"/>
</g>
<g fill="#F6928A" fill-opacity="0.36" stroke="None">
<path d="
M 68.00 56.00 
C 66.68 56.43 66.25 57.09 65.00 56.00
C 66.42 58.85 66.48 56.85 68.00 56.00 Z"/>
</g>
<g fill="#000000" fill-opacity="0.00" stroke="None">
<path d="
M 93.00 57.00 
C 90.79 57.92 79.75 63.83 81.00 65.00
C 81.78 65.73 82.95 66.02 84.00 66.00
C 86.26 65.45 94.45 61.31 95.00 59.00
C 95.69 56.11 94.51 56.80 93.00 57.00 Z"/>
</g>
<g fill="#FFADA4" fill-opacity="0.28" stroke="None">
<path d="
M 21.00 60.00 
C 19.87 59.46 18.50 57.70 17.00 57.00
C 18.35 57.86 19.17 59.30 21.00 60.00 Z"/>
</g>
<g fill="#FFB3AD" fill-opacity="0.27" stroke="None">
<path d="
M 79.00 60.00 
C 80.89 59.28 81.57 58.05 83.00 57.00
C 81.73 57.75 80.07 59.48 79.00 60.00 Z"/>
</g>
<g fill="#FFA09D" fill-opacity="0.22" stroke="None">
<path d="
M 27.00 61.00 
C 29.69 60.21 28.23 59.07 27.00 58.00
C 27.62 58.76 28.06 60.35 27.00 61.00 Z"/>
</g>
<g fill="#FFAEA9" fill-opacity="0.22" stroke="None">
<path d="
M 73.00 61.00 
C 71.95 60.36 72.42 58.72 73.00 58.00
C 71.80 59.04 70.26 60.20 73.00 61.00 Z"/>
</g>
<g fill="#000000" fill-opacity="0.00" stroke="None">
<path d="
M 0.00 100.00 
L 40.00 100.00
C 40.00 99.50 40.00 99.00 40.00 99.00
C 32.20 98.26 25.25 94.65 19.00 90.00
C 15.70 87.55 12.35 84.31 10.00 81.00
C 9.08 79.71 8.67 78.27 8.00 77.00
C 7.11 75.63 5.85 74.66 5.00 73.00
C 2.62 68.37 1.50 64.19 1.00 59.00
C 1.00 59.00 0.50 59.00 0.00 59.00
L 0.00 100.00 Z"/>
</g>
<g fill="#FFA39B" fill-opacity="0.27" stroke="None">
<path d="
M 42.00 62.00 
C 43.82 61.28 44.59 59.88 46.00 59.00
C 44.43 59.79 43.29 61.29 42.00 62.00 Z"/>
</g>
<g fill="#FDA4A4" fill-opacity="0.28" stroke="None">
<path d="
M 58.00 62.00 
C 56.79 61.33 55.54 59.77 54.00 59.00
C 55.34 59.84 56.20 61.28 58.00 62.00 Z"/>
</g>
<g fill="#000000" fill-opacity="0.00" stroke="None">
<path d="
M 96.00 71.00 
C 94.96 73.41 93.21 75.05 92.00 77.00
C 91.30 78.43 91.01 79.58 90.00 81.00
C 87.61 84.36 84.24 87.59 81.00 90.00
C 74.34 94.95 67.29 98.28 59.00 99.00
C 58.99 99.00 59.00 100.00 59.00 100.00
L 100.00 100.00
L 100.00 59.00
C 100.00 59.00 99.00 58.99 99.00 59.00
C 98.58 63.42 97.71 67.03 96.00 71.00 Z"/>
</g>
<g fill="#FEA5A7" fill-opacity="0.26" stroke="None">
<path d="
M 13.00 65.00 
C 11.94 64.41 10.27 62.81 9.00 62.00
C 10.38 63.08 11.11 64.25 13.00 65.00 Z"/>
</g>
<g fill="#FBB2C8" fill-opacity="0.18" stroke="None">
<path d="
M 47.00 64.00 
C 47.65 63.70 49.73 62.03 50.00 62.00
C 47.85 62.02 48.35 63.12 47.00 64.00 Z"/>
</g>
<g fill="#000000" fill-opacity="0.00" stroke="None">
<path d="
M 47.00 64.00 
C 45.99 64.47 44.96 64.62 44.00 65.00
C 42.81 65.66 41.39 67.18 40.00 68.00
C 33.58 71.80 23.27 75.16 18.00 80.00
C 17.08 81.32 17.68 83.00 19.00 84.00
C 19.00 84.00 19.50 83.99 20.00 84.00
C 20.92 83.31 21.82 82.55 23.00 82.00
C 24.01 81.53 25.04 81.38 26.00 81.00
C 27.32 80.27 28.36 78.76 30.00 78.00
C 31.01 77.53 32.04 77.38 33.00 77.00
C 34.19 76.34 35.61 74.82 37.00 74.00
C 39.62 72.45 42.41 71.32 45.00 70.00
C 46.38 69.12 47.02 67.39 49.00 67.00
C 49.48 66.91 50.52 66.91 51.00 67.00
C 52.94 67.38 53.69 69.28 55.00 70.00
C 56.03 70.41 56.95 70.51 58.00 71.00
C 59.71 71.79 60.68 73.16 62.00 74.00
C 64.62 75.34 67.35 76.43 70.00 78.00
C 71.36 78.80 72.89 80.38 74.00 81.00
C 75.02 81.41 75.95 81.52 77.00 82.00
C 78.08 82.50 79.53 82.88 80.00 84.00
C 81.58 83.16 83.58 81.76 82.00 80.00
C 79.53 77.73 73.58 76.36 70.75 74.25 C 67.92 72.15 63.16 68.99 60.08 67.92 C 57.00 66.85 52.83 61.65 50.00 62.00
C 49.73 62.03 47.65 63.70 47.00 64.00 Z"/>
</g>
<g fill="#FDA8A4" fill-opacity="0.29" stroke="None">
<path d="
M 27.00 66.00 
C 28.44 65.15 29.76 63.73 31.00 63.00
C 29.22 63.84 28.42 64.96 27.00 66.00 Z"/>
</g>
<g fill="#FFB4B0" fill-opacity="0.25" stroke="None">
<path d="
M 35.00 66.00 
C 36.65 65.16 37.64 63.87 39.00 63.00
C 37.28 63.80 36.39 65.12 35.00 66.00 Z"/>
</g>
<g fill="#FFA7A6" fill-opacity="0.26" stroke="None">
<path d="
M 65.00 66.00 
C 63.68 65.16 62.71 63.79 61.00 63.00
C 62.29 63.83 63.37 65.17 65.00 66.00 Z"/>
</g>
<g fill="#FFADAA" fill-opacity="0.20" stroke="None">
<path d="
M 16.00 66.00 
C 17.46 66.47 17.89 67.28 19.00 65.00
C 18.36 65.59 16.85 66.04 16.00 66.00 Z"/>
</g>
<g fill="#FCAEAB" fill-opacity="0.25" stroke="None">
<path d="
M 40.00 68.00 
C 41.39 67.18 42.81 65.66 44.00 65.00
C 42.13 65.74 41.43 66.95 40.00 68.00 Z"/>
</g>
<g fill="#FFABA8" fill-opacity="0.21" stroke="None">
<path d="
M 84.00 66.00 
C 82.95 66.02 81.78 65.73 81.00 65.00
C 82.10 67.26 82.55 66.35 84.00 66.00 Z"/>
</g>
<g fill="#000000" fill-opacity="0.00" stroke="None">
<path d="
M 8.00 69.00 
C 8.87 70.32 12.07 69.95 11.00 68.00
C 10.78 67.59 6.53 66.75 8.00 69.00 Z"/>
</g>
<g fill="#FFB6B3" fill-opacity="0.26" stroke="None">
<path d="
M 45.00 70.00 
C 46.64 69.16 47.65 67.85 49.00 67.00
C 47.02 67.39 46.38 69.12 45.00 70.00 Z"/>
</g>
<g fill="#FFA9AB" fill-opacity="0.26" stroke="None">
<path d="
M 55.00 70.00 
C 53.69 69.28 52.94 67.38 51.00 67.00
C 52.34 67.84 53.20 69.29 55.00 70.00 Z"/>
</g>
<g fill="#000000" fill-opacity="0.00" stroke="None">
<path d="
M 89.00 68.00 
C 87.84 70.12 91.29 70.09 92.00 69.00
C 93.42 66.83 89.31 67.44 89.00 68.00 Z"/>
</g>
<g fill="#FFA6A2" fill-opacity="0.24" stroke="None">
<path d="
M 8.00 69.00 
C 8.24 72.42 13.85 70.04 11.00 68.00
C 12.07 69.95 8.87 70.32 8.00 69.00 Z"/>
</g>
<g fill="#FFA5A8" fill-opacity="0.24" stroke="None">
<path d="
M 92.00 69.00 
C 91.29 70.09 87.84 70.12 89.00 68.00
C 86.11 70.06 91.76 72.41 92.00 69.00 Z"/>
</g>
<g fill="#FDB3AF" fill-opacity="0.25" stroke="None">
<path d="
M 13.00 74.00 
C 15.46 73.03 17.00 71.19 19.00 70.00
C 16.77 71.05 14.34 71.86 13.00 74.00 Z"/>
</g>
<g fill="#FFB9B1" fill-opacity="0.23" stroke="None">
<path d="
M 62.00 74.00 
C 60.68 73.16 59.71 71.79 58.00 71.00
C 59.29 71.83 60.37 73.17 62.00 74.00 Z"/>
</g>
<g fill="#FA9E9C" fill-opacity="0.31" stroke="None">
<path d="
M 87.00 74.00 
C 85.83 72.39 84.80 71.92 83.00 71.00
C 84.35 71.86 85.07 73.48 87.00 74.00 Z"/>
</g>
<g fill="#FCB0B1" fill-opacity="0.27" stroke="None">
<path d="
M 92.00 77.00 
C 93.21 75.05 94.96 73.41 96.00 71.00
C 94.99 72.85 93.08 74.79 92.00 77.00 Z"/>
</g>
<g fill="#000000" fill-opacity="0.00" stroke="None">
<path d="
M 42.00 76.00 
C 40.71 76.82 39.49 78.11 38.00 79.00
C 35.03 80.76 32.13 82.50 29.00 84.00
C 28.11 84.57 27.26 85.69 26.00 86.00
C 26.00 86.00 25.20 85.75 25.00 86.00
C 22.66 88.83 27.45 88.53 29.00 88.00
C 29.99 87.42 31.02 87.39 32.00 87.00
C 33.32 86.27 34.36 84.76 36.00 84.00
C 37.01 83.53 38.04 83.38 39.00 83.00
C 40.19 82.34 41.61 80.82 43.00 80.00
C 44.89 78.88 46.91 77.47 49.00 77.00
C 51.86 76.36 51.47 77.57 54.00 79.00
C 55.04 79.40 55.94 79.51 57.00 80.00
C 58.61 80.75 59.76 82.32 61.00 83.00
C 62.03 83.41 62.95 83.51 64.00 84.00
C 65.61 84.75 66.76 86.31 68.00 87.00
C 69.00 87.40 69.97 87.56 71.00 88.00
C 72.14 88.49 72.65 88.99 74.00 89.00
C 74.00 89.00 74.66 89.24 75.00 89.00
C 76.05 88.26 75.63 86.84 75.00 86.00
C 69.97 81.37 63.62 81.77 58.23 76.77 C 52.84 71.77 48.10 72.89 42.00 76.00 Z"/>
</g>
<g fill="#FDA7A8" fill-opacity="0.29" stroke="None">
<path d="
M 8.00 77.00 
C 7.15 75.37 5.86 74.35 5.00 73.00
C 5.85 74.66 7.11 75.63 8.00 77.00 Z"/>
</g>
<g fill="#FFA094" fill-opacity="0.27" stroke="None">
<path d="
M 15.00 77.00 
C 13.43 77.08 11.53 75.84 12.00 74.00
C 10.03 75.91 13.16 78.39 15.00 77.00 Z"/>
</g>
<g fill="#FC9D9B" fill-opacity="0.31" stroke="None">
<path d="
M 16.00 77.00 
C 17.96 76.47 18.60 75.02 20.00 74.00
C 18.28 75.02 17.21 75.34 16.00 77.00 Z"/>
</g>
<g fill="#FB9E9B" fill-opacity="0.32" stroke="None">
<path d="
M 33.00 77.00 
C 34.87 76.26 35.57 75.05 37.00 74.00
C 35.61 74.82 34.19 76.34 33.00 77.00 Z"/>
</g>
<g fill="#FBA29D" fill-opacity="0.31" stroke="None">
<path d="
M 84.00 77.00 
C 82.80 75.35 81.76 75.04 80.00 74.00
C 81.35 74.99 82.04 76.47 84.00 77.00 Z"/>
</g>
<g fill="#FFA59D" fill-opacity="0.29" stroke="None">
<path d="
M 85.00 77.00 
C 86.90 78.44 89.90 75.85 88.00 74.00
C 88.48 75.85 86.55 77.08 85.00 77.00 Z"/>
</g>
<g fill="#FFA49C" fill-opacity="0.26" stroke="None">
<path d="
M 38.00 79.00 
C 39.49 78.11 40.71 76.82 42.00 76.00
C 40.27 76.88 39.41 77.97 38.00 79.00 Z"/>
</g>
<g fill="#FCA6A5" fill-opacity="0.29" stroke="None">
<path d="
M 49.00 77.00 
C 50.94 76.97 52.29 78.34 54.00 79.00
C 51.47 77.57 51.86 76.36 49.00 77.00 Z"/>
</g>
<g fill="#FB9D9B" fill-opacity="0.28" stroke="None">
<path d="
M 26.00 81.00 
C 27.83 80.28 28.58 78.90 30.00 78.00
C 28.36 78.76 27.32 80.27 26.00 81.00 Z"/>
</g>
<g fill="#FBA7AA" fill-opacity="0.29" stroke="None">
<path d="
M 74.00 81.00 
C 72.89 80.38 71.36 78.80 70.00 78.00
C 71.38 79.01 72.13 80.26 74.00 81.00 Z"/>
</g>
<g fill="#FF9C9D" fill-opacity="0.29" stroke="None">
<path d="
M 19.00 84.00 
C 17.68 83.00 17.08 81.32 18.00 80.00
C 16.27 81.59 16.02 82.93 19.00 84.00 Z"/>
</g>
<g fill="#FDA79F" fill-opacity="0.29" stroke="None">
<path d="
M 39.00 83.00 
C 40.87 82.26 41.57 81.05 43.00 80.00
C 41.61 80.82 40.19 82.34 39.00 83.00 Z"/>
</g>
<g fill="#FEA1A1" fill-opacity="0.29" stroke="None">
<path d="
M 61.00 83.00 
C 59.76 82.32 58.61 80.75 57.00 80.00
C 58.35 80.86 59.19 82.28 61.00 83.00 Z"/>
</g>
<g fill="#FFA09D" fill-opacity="0.30" stroke="None">
<path d="
M 77.00 82.00 
C 79.78 83.82 86.23 83.88 82.00 80.00
C 83.58 81.76 81.58 83.16 80.00 84.00
C 79.53 82.88 78.08 82.50 77.00 82.00 Z"/>
</g>
<g fill="#FFC4C2" fill-opacity="0.16" stroke="None">
<path d="
M 19.00 90.00 
C 16.28 87.63 12.36 83.81 10.00 81.00
C 12.35 84.31 15.70 87.55 19.00 90.00 Z"/>
</g>
<g fill="#FFD6CE" fill-opacity="0.07" stroke="None">
<path d="
M 81.00 90.00 
C 84.24 87.59 87.61 84.36 90.00 81.00
C 87.68 83.76 83.77 87.58 81.00 90.00 Z"/>
</g>
<g fill="#FABDC0" fill-opacity="0.21" stroke="None">
<path d="
M 20.00 84.00 
C 22.15 84.06 21.68 82.86 23.00 82.00
C 21.82 82.55 20.92 83.31 20.00 84.00 Z"/>
</g>
<g fill="#000000" fill-opacity="0.00" stroke="None">
<path d="
M 35.00 90.00 
C 34.69 90.25 32.00 92.13 33.00 93.00
C 33.39 93.21 34.50 93.00 35.00 93.00
C 36.72 92.99 37.49 92.64 39.00 92.00
C 46.40 88.86 48.13 84.34 56.00 89.00
C 57.76 90.04 58.80 90.35 60.00 92.00
C 60.00 92.00 60.63 91.78 61.00 92.00
C 62.56 92.94 64.13 93.19 66.00 93.00
C 66.00 93.00 66.87 93.22 67.00 93.00
C 67.34 92.43 66.39 90.39 66.00 90.00
C 63.52 88.13 58.94 86.60 56.00 85.00
C 54.98 84.45 53.80 83.39 53.00 83.00
C 48.01 81.25 39.23 86.61 35.00 90.00 Z"/>
</g>
<g fill="#FFC1BE" fill-opacity="0.23" stroke="None">
<path d="
M 56.00 85.00 
C 54.70 84.02 54.73 83.61 53.00 83.00
C 53.80 83.39 54.98 84.45 56.00 85.00 Z"/>
</g>
<g fill="#FFCCC8" fill-opacity="0.17" stroke="None">
<path d="
M 26.00 86.00 
C 27.26 85.69 28.11 84.57 29.00 84.00
C 27.40 84.77 27.04 84.27 26.00 86.00 Z"/>
</g>
<g fill="#FBA5A3" fill-opacity="0.27" stroke="None">
<path d="
M 32.00 87.00 
C 33.83 86.28 34.58 84.90 36.00 84.00
C 34.36 84.76 33.32 86.27 32.00 87.00 Z"/>
</g>
<g fill="#FDA7A6" fill-opacity="0.26" stroke="None">
<path d="
M 68.00 87.00 
C 66.76 86.31 65.61 84.75 64.00 84.00
C 65.35 84.86 66.19 86.28 68.00 87.00 Z"/>
</g>
<g fill="#FFB1AD" fill-opacity="0.24" stroke="None">
<path d="
M 29.00 88.00 
C 27.45 88.53 22.66 88.83 25.00 86.00
C 20.95 87.80 26.41 89.52 29.00 88.00 Z"/>
</g>
<g fill="#FF989C" fill-opacity="0.27" stroke="None">
<path d="
M 75.00 89.00 
C 77.65 88.07 76.26 87.16 75.00 86.00
C 75.63 86.84 76.05 88.26 75.00 89.00 Z"/>
</g>
<g fill="#FCA8A1" fill-opacity="0.30" stroke="None">
<path d="
M 74.00 89.00 
C 72.65 88.99 72.14 88.49 71.00 88.00
C 72.41 88.83 72.11 90.83 74.00 89.00 Z"/>
</g>
<g fill="#FFBCB5" fill-opacity="0.21" stroke="None">
<path d="
M 60.00 92.00 
C 58.80 90.35 57.76 90.04 56.00 89.00
C 57.35 89.99 58.04 91.47 60.00 92.00 Z"/>
</g>
<g fill="#FFB7B9" fill-opacity="0.21" stroke="None">
<path d="
M 33.00 93.00 
C 32.00 92.13 34.69 90.25 35.00 90.00
C 34.29 90.46 30.09 91.44 33.00 93.00 Z"/>
</g>
<g fill="#FF9D9C" fill-opacity="0.26" stroke="None">
<path d="
M 67.00 93.00 
C 69.00 91.83 67.13 90.85 66.00 90.00
C 66.39 90.39 67.34 92.43 67.00 93.00 Z"/>
</g>
<g fill="#000000" fill-opacity="0.00" stroke="None">
<path d="
M 44.00 94.00 
C 44.54 94.40 46.44 95.87 47.00 96.00
C 48.98 96.12 51.01 96.00 53.00 96.00
C 53.37 95.92 55.30 95.22 56.00 95.00
C 56.00 94.50 56.00 94.00 56.00 94.00
C 53.14 94.25 51.68 91.05 49.00 91.00
C 48.80 93.54 45.14 92.97 44.00 94.00 Z"/>
</g>
<g fill="#FBB6B2" fill-opacity="0.19" stroke="None">
<path d="
M 35.00 93.00 
C 37.72 94.25 36.74 93.30 39.00 92.00
C 37.49 92.64 36.72 92.99 35.00 93.00 Z"/>
</g>
<g fill="#F9AEA4" fill-opacity="0.26" stroke="None">
<path d="
M 66.00 93.00 
C 64.13 93.19 62.56 92.94 61.00 92.00
C 62.21 94.29 64.18 94.46 66.00 93.00 Z"/>
</g>
<g fill="#FFABA8" fill-opacity="0.24" stroke="None">
<path d="
M 47.00 96.00 
C 46.44 95.87 44.54 94.40 44.00 94.00
C 42.97 94.13 42.41 95.17 42.00 96.00
C 43.66 96.08 45.34 95.90 47.00 96.00 Z"/>
</g>
<g fill="#FF8284" fill-opacity="0.40" stroke="None">
<path d="
M 56.00 95.00 
C 56.00 95.50 56.00 96.00 56.00 96.00
C 58.38 96.21 57.74 94.40 56.00 94.00
C 56.00 94.00 56.00 94.50 56.00 95.00 Z"/>
</g>
<g fill="#FFC2C4" fill-opacity="0.08" stroke="None">
<path d="
M 53.00 96.00 
C 53.39 96.00 55.76 96.26 56.00 96.00
C 56.00 96.00 56.00 95.50 56.00 95.00
C 55.30 95.22 53.37 95.92 53.00 96.00 Z"/>
</g>
<g fill="#FF7F7E" fill-opacity="0.43" stroke="None">
<path d="
M 40.00 100.00 
L 46.00 100.00
C 44.91 98.15 41.91 99.18 40.00 99.00
C 40.00 99.00 40.00 99.50 40.00 100.00 Z"/>
</g>
<g fill="#FF746D" fill-opacity="0.47" stroke="None">
<path d="
M 54.00 100.00 
L 59.00 100.00
C 59.00 100.00 58.99 99.00 59.00 99.00
C 57.43 99.14 54.84 98.39 54.00 100.00 Z"/>
</g>
</svg>