<?xml version="1.0" standalone="no"?>
<!DOCTYPE svg PUBLIC "-//W3C//DTD SVG 20010904//EN"
 "http://www.w3.org/TR/2001/REC-SVG-20010904/DTD/svg10.dtd">
<svg version="1.0" xmlns="http://www.w3.org/2000/svg"
 width="200.000000pt" height="200.000000pt" viewBox="0 0 200.000000 200.000000"
 preserveAspectRatio="xMidYMid meet">
<metadata>
Created by potrace 1.10, written by Peter Selinger 2001-2011
</metadata>
<g transform="translate(0.000000,200.000000) scale(0.100000,-0.100000)"
fill="#000000" stroke="none">
<path d="M902 1879 c-67 -33 -72 -55 -32 -145 18 -41 31 -76 29 -77 -2 -2 -17
-7 -34 -13 -16 -5 -30 -16 -31 -24 0 -8 -34 -49 -76 -90 -59 -59 -79 -86 -88
-120 -6 -25 -17 -54 -23 -65 -38 -69 -47 -94 -47 -132 l0 -43 -46 29 c-110 70
-207 37 -263 -90 -11 -25 -29 -53 -40 -63 -44 -40 -64 -121 -65 -257 l0 -126
-71 -21 c-79 -23 -115 -51 -115 -88 0 -34 23 -85 49 -108 21 -19 22 -19 99 7
92 32 92 32 92 8 0 -32 11 -51 29 -51 10 0 23 -11 28 -23 23 -50 123 -145 171
-163 26 -10 65 -31 86 -46 113 -81 222 -42 277 99 18 46 23 84 26 188 3 72 1
148 -4 170 l-9 40 140 48 c140 48 146 49 159 12 2 -5 25 5 52 23 27 18 52 32
57 32 11 0 10 27 -1 34 -5 3 -99 -25 -210 -62 -111 -38 -200 -64 -198 -59 1 5
90 39 196 76 106 37 192 71 192 76 0 6 -5 22 -10 37 l-9 26 -184 -60 c-101
-33 -190 -62 -198 -65 -11 -3 -19 7 -26 34 l-10 39 188 64 c103 35 188 68 188
75 0 6 -6 19 -13 29 -10 14 -21 16 -55 10 -41 -6 -43 -8 -40 -37 l3 -30 -130
-44 c-71 -23 -134 -43 -140 -43 -5 0 -27 34 -48 75 -25 47 -53 86 -78 106 -45
35 -50 30 -13 -14 77 -91 155 -304 174 -475 29 -260 -66 -454 -209 -426 l-32
7 39 33 c61 52 84 117 90 252 7 178 -20 307 -98 467 -65 131 -182 245 -252
245 -15 0 -28 4 -28 8 0 13 68 42 98 42 40 -1 104 -33 153 -77 23 -21 39 -31
34 -23 -4 8 3 5 16 -6 89 -80 257 -100 444 -54 22 5 47 10 55 10 18 0 136
-252 126 -268 -3 -5 -37 -28 -75 -51 -85 -52 -164 -133 -196 -203 -43 -91 -29
-169 40 -226 40 -32 186 -86 265 -96 41 -6 155 5 215 20 19 5 25 -3 49 -60 18
-41 34 -66 45 -67 63 -4 126 20 142 55 12 25 9 39 -25 117 l-15 36 47 31 c61
40 99 80 166 176 88 127 96 224 24 293 -74 69 -181 94 -330 75 -51 -7 -105
-15 -120 -18 -22 -5 -29 -1 -43 26 -9 17 -14 34 -12 36 2 3 10 -9 17 -26 10
-25 18 -30 34 -26 12 3 29 6 39 6 11 0 17 8 17 23 0 38 -34 157 -65 225 l-28
63 44 36 c122 102 169 174 169 257 0 69 -28 109 -98 141 -31 15 -65 31 -75 37
-23 11 -35 2 -19 -14 21 -21 14 -98 -13 -144 -71 -121 -283 -236 -490 -265
-137 -19 -255 13 -290 80 l-14 27 49 -24 c158 -78 485 5 653 166 52 50 75 90
86 147 l9 47 -42 18 c-57 26 -148 34 -237 21 -41 -6 -82 -13 -90 -16 -10 -4
-22 16 -44 70 -16 41 -34 75 -38 75 -5 0 -7 -10 -4 -22 4 -12 1 -29 -6 -37
-10 -12 -9 -14 5 -9 10 4 19 1 22 -9 7 -17 -1 -33 -16 -33 -6 0 -5 7 3 17 12
15 12 16 -3 11 -21 -9 -32 19 -16 40 11 13 10 15 -4 9 -23 -8 -23 1 -1 26 17
18 17 19 -2 33 -26 19 -42 18 -93 -7z m76 -15 c-4 -23 -47 -53 -87 -60 -29 -6
-33 -4 -29 12 2 10 18 29 37 41 41 28 84 31 79 7z m-23 -83 c-16 -15 -65 -25
-65 -13 0 6 12 13 28 15 15 2 31 5 37 6 6 0 6 -2 0 -8z m100 -70 c-3 -5 0 -11
6 -13 7 -2 4 -10 -7 -18 -16 -14 -17 -13 -11 3 4 9 2 17 -5 17 -6 0 -5 6 3 17
12 15 12 16 -3 10 -10 -3 -18 -2 -18 2 0 5 6 11 13 14 14 5 31 -19 22 -32z
m-75 20 c-26 -14 -70 -22 -70 -12 0 9 26 16 70 19 13 1 13 0 0 -7z m250 -42
c9 -21 10 -33 2 -41 -7 -7 -10 -6 -9 3 0 8 -1 23 -1 33 -2 19 -2 19 -23 0 -16
-15 -18 -20 -7 -29 22 -17 40 -67 29 -78 -8 -8 -6 -16 5 -28 13 -15 12 -19
-11 -47 -38 -45 -123 -83 -200 -90 -43 -3 -70 -1 -79 7 -29 24 -7 36 67 36
110 1 191 52 204 129 5 34 -7 50 -21 27 -3 -5 -26 -14 -51 -20 -25 -6 -64 -25
-87 -41 -42 -31 -95 -39 -115 -19 -7 7 -26 6 -62 -3 -49 -12 -51 -14 -37 -33
13 -18 18 -19 57 -8 27 7 50 8 61 2 32 -17 71 -9 122 25 28 19 66 37 84 40 46
8 40 -1 -10 -15 -23 -6 -55 -22 -71 -35 -34 -29 -68 -38 -105 -30 -35 9 -40 9
-85 0 -65 -12 -105 45 -61 87 13 12 24 33 24 45 0 16 9 25 30 33 29 10 31 9
46 -29 14 -34 21 -40 45 -40 41 0 119 39 131 65 7 16 7 29 -1 43 -10 18 -7 21
27 30 69 18 88 15 102 -19z m182 -17 c29 -29 -41 -134 -131 -197 -45 -30 -66
-28 -36 5 19 20 21 52 10 107 -4 18 -4 49 0 69 l6 37 70 -5 c39 -3 75 -10 81
-16z m-398 -12 c-14 -14 -82 -26 -69 -12 9 9 28 15 70 21 5 0 5 -3 -1 -9z
m606 -75 c93 -150 -114 -374 -448 -485 -272 -90 -535 -42 -559 103 -10 62 1
70 41 32 111 -105 395 -89 643 36 169 84 293 217 293 314 0 19 2 35 4 35 2 0
14 -16 26 -35z m-80 -39 c-6 -19 -18 -40 -26 -46 -12 -11 -12 -8 0 21 7 19 16
43 20 53 12 34 18 8 6 -28z m-725 -76 c10 -11 28 -20 41 -20 15 0 29 -11 41
-30 9 -17 30 -36 45 -43 16 -6 28 -15 28 -19 0 -3 -25 -10 -55 -13 -97 -13
-205 15 -205 52 0 26 51 93 70 93 9 0 25 -9 35 -20z m630 -280 c-4 -6 -24 -19
-45 -30 l-39 -20 35 -83 c44 -101 49 -114 41 -106 -14 12 -88 194 -80 196 4 2
26 14 48 28 45 28 49 29 40 15z m9 -77 c17 -34 56 -164 56 -187 0 -10 -5 -16
-12 -14 -16 6 -100 198 -94 215 9 22 35 14 50 -14z m-105 -5 c5 -13 45 -107
90 -210 92 -209 92 -212 21 -248 -40 -21 -77 -25 -96 -12 -9 5 -122 255 -191
420 -3 6 -1 12 4 12 5 0 51 -94 103 -210 87 -195 95 -210 119 -210 56 0 55 6
-44 233 l-94 217 32 14 c44 19 46 19 56 -6z m-904 -33 c27 -22 24 -21 -27 6
-32 17 -58 32 -58 34 0 10 58 -18 85 -40z m-60 -24 c192 -87 328 -538 225
-741 -21 -41 -64 -80 -88 -80 -12 0 -11 5 6 23 40 42 55 103 55 222 -1 80 -7
132 -22 190 -49 184 -159 341 -257 367 l-46 13 28 12 c39 16 52 16 99 -6z
m-35 -90 c39 -31 105 -122 115 -161 l7 -25 -30 29 c-17 16 -40 27 -54 26 -68
-4 -106 -3 -132 4 -28 7 -29 8 -23 62 11 106 42 123 117 65z m1420 -108 c104
-23 116 -31 112 -83 -7 -109 -130 -229 -314 -306 -120 -51 -191 -67 -303 -68
-108 0 -157 15 -220 67 l-29 24 18 41 c24 53 188 222 216 222 29 0 64 -82 55
-129 -5 -28 -2 -38 21 -62 36 -37 72 -44 138 -25 60 18 109 54 131 97 22 41
19 57 -15 91 -35 34 -73 104 -67 121 4 13 153 38 177 29 8 -3 44 -11 80 -19z
m-1501 -46 c8 -11 4 -13 -20 -9 -29 4 -30 3 -17 -17 13 -21 28 -28 28 -13 0
15 62 35 79 25 11 -7 22 -7 34 1 16 9 23 5 48 -24 75 -89 92 -310 22 -283 -9
4 -11 12 -7 22 27 60 3 179 -46 234 l-29 32 6 -45 c4 -25 18 -62 32 -84 17
-26 24 -49 23 -75 -2 -20 -4 -64 -5 -98 -2 -65 -13 -85 -54 -97 -17 -5 -27 0
-43 22 -15 20 -28 28 -40 25 -15 -4 -21 3 -28 28 -10 36 -9 37 52 59 27 10 28
13 22 51 -8 51 -40 115 -61 123 -9 3 -25 2 -34 -4 -26 -13 -31 -4 -31 61 0 53
2 58 28 67 15 6 28 11 28 11 1 1 6 -5 13 -12z m1697 -85 c31 -157 -221 -369
-516 -436 -90 -21 -238 -22 -303 -2 -87 26 -147 91 -147 158 0 23 0 23 23 -4
42 -50 102 -71 214 -76 314 -13 682 201 683 398 l0 45 20 -25 c11 -14 22 -40
26 -58z m-393 -31 c7 -30 -28 -78 -74 -102 -57 -29 -135 -31 -155 -5 -22 30
-18 33 40 28 69 -6 138 24 158 69 15 34 24 37 31 10z m-1373 -74 c0 -5 -4 -5
-10 -2 -5 3 -10 1 -10 -6 0 -8 -4 -8 -15 1 -12 10 -15 9 -15 -6 0 -17 -1 -17
-16 2 -13 16 -15 16 -10 2 6 -21 -9 -24 -17 -4 -6 15 19 30 34 20 5 -3 9 0 9
7 0 8 4 8 15 -1 12 -10 15 -9 15 6 0 16 2 17 10 4 5 -8 10 -19 10 -23z m74
-39 c8 -32 7 -48 -3 -48 -5 0 -11 16 -13 35 -4 39 6 48 16 13z m-54 3 c0 -5 3
-23 6 -40 4 -18 2 -31 -4 -31 -5 0 -12 18 -14 40 -2 22 0 40 4 40 5 0 8 -4 8
-9z m-166 -20 c9 -10 21 -32 27 -47 l9 -29 -4 27 c-2 15 1 25 5 22 15 -9 10
-61 -6 -74 -21 -17 -39 0 -61 55 -22 60 -6 86 30 46z m116 -3 c0 -7 3 -23 6
-35 4 -13 2 -23 -4 -23 -5 0 -12 16 -14 35 -2 19 0 35 4 35 4 0 8 -6 8 -12z
m-46 -30 c8 -32 7 -48 -3 -48 -5 0 -11 16 -13 35 -4 39 6 48 16 13z m406 -187
c-6 -22 -19 -50 -29 -62 l-19 -23 -41 29 c-58 40 -66 57 -37 84 13 12 26 36
30 52 4 20 11 29 25 29 21 0 55 37 68 73 13 34 16 -136 3 -182z m1185 -81 c-3
-5 -1 -10 6 -10 8 0 8 -4 -1 -15 -7 -8 -17 -15 -22 -15 -6 0 -4 8 3 17 12 15
12 16 -3 10 -20 -7 -25 9 -5 16 20 9 29 8 22 -3z m-75 -9 c-26 -14 -70 -22
-70 -12 0 10 26 17 65 19 16 1 17 0 5 -7z m96 -53 c0 -12 -8 -24 -16 -26 -13
-5 -13 -3 -1 12 12 14 12 16 -3 10 -9 -3 -16 -2 -16 4 0 9 14 19 31 21 4 1 6
-9 5 -21z m-76 3 c-26 -14 -70 -22 -70 -12 0 9 26 16 70 19 13 1 13 0 0 -7z
m20 -21 c0 -5 -4 -10 -9 -10 -5 0 -24 -2 -42 -5 l-34 -5 35 14 c43 18 50 19
50 6z"/>
<path d="M630 1212 c0 -33 39 -80 84 -101 56 -28 163 -44 236 -36 83 9 210 37
210 46 0 4 -5 20 -12 34 -9 20 -17 25 -32 21 -186 -52 -386 -39 -460 29 -22
20 -26 21 -26 7z"/>
<path d="M307 783 c-9 -15 19 -119 46 -170 31 -60 33 -80 12 -103 -11 -12 -13
-29 -8 -68 3 -29 9 -52 14 -52 18 0 39 33 34 53 -10 36 -8 60 6 95 13 31 12
37 -19 95 -18 34 -32 73 -32 87 0 40 -39 87 -53 63z"/>
<path d="M1030 390 c0 -11 54 -57 90 -76 29 -16 57 -19 165 -19 76 0 152 6
182 13 49 13 52 15 41 35 -6 12 -12 23 -13 25 -1 1 -33 -5 -71 -14 -48 -11
-102 -15 -179 -12 -94 3 -118 7 -163 29 -28 14 -52 23 -52 19z"/>
<path d="M1549 1268 c-15 -10 -14 -17 11 -72 26 -57 71 -195 85 -258 4 -23 11
-28 35 -28 29 0 30 1 24 38 l-5 37 68 25 68 25 3 42 c4 54 -20 110 -53 123
-19 7 -37 5 -76 -10 -55 -22 -79 -25 -79 -10 0 12 -53 100 -60 99 -3 0 -12 -5
-21 -11z m209 -108 c5 -13 3 -13 -13 0 -17 14 -18 13 -12 -2 3 -10 2 -18 -3
-18 -6 0 -10 2 -10 4 0 2 -3 11 -6 19 -3 10 2 14 17 13 12 0 25 -8 27 -16z
m22 -52 c0 -7 3 -23 6 -35 4 -13 2 -23 -4 -23 -5 0 -12 16 -14 35 -2 19 0 35
4 35 4 0 8 -6 8 -12z m-47 -45 c4 -19 2 -33 -3 -33 -6 0 -10 11 -10 24 0 13
-3 33 -6 43 -5 12 -4 15 3 8 6 -5 13 -25 16 -42z m-24 -20 c1 -13 -3 -23 -9
-23 -5 0 -10 19 -9 43 0 32 2 37 9 22 5 -11 9 -30 9 -42z"/>
<path d="M1579 963 c-11 -3 -14 -12 -11 -33 3 -24 9 -30 28 -30 21 0 24 5 24
35 0 35 -5 38 -41 28z"/>
<path d="M747 683 c-17 -4 -18 -12 -10 -71 20 -171 -4 -320 -64 -399 -28 -36
-30 -43 -14 -43 10 0 33 10 52 22 77 51 117 209 99 384 -5 49 -10 95 -10 102
0 12 -19 14 -53 5z"/>
</g>
</svg>
